<svg xmlns="http://www.w3.org/2000/svg" viewBox="0 0 1762 2888" width="1762" height="2888">
	<style>
		tspan { white-space:pre }
		.shp0 { opacity: 0.102;fill: #6c63ff } 
		.shp1 { fill: none;stroke: #535461;stroke-width: 2 } 
		.shp2 { fill: #6c63ff } 
		.shp3 { fill: #ffd037 } 
		.shp4 { fill: #3f3d56 } 
		.shp5 { fill: #3f3d56;stroke: #707070 } 
		.shp6 { fill: #ffffff;stroke: #707070 } 
		.shp7 { opacity: 0.8;fill: #fa5959;stroke: #707070 } 
		.shp8 { opacity: 0.8;fill: #fed253;stroke: #707070 } 
		.shp9 { opacity: 0.8;fill: #8ccf4d;stroke: #707070 } 
		.shp10 { fill: none;stroke: #707070 } 
		.shp11 { fill: none;stroke: #707070;stroke-width: 0.6 } 
		.txt12 { font-size: 18px;fill: #ffffff;font-family: "Roboto" } 
		.shp13 { fill: #ffffff } 
		.txt14 { font-size: 22px;fill: #3f3d56;font-family: "Roboto" } 
		.shp15 { fill: #ff69b4 } 
		.shp16 { fill: #1ce9b6 } 
		.shp17 { fill: #2beaba } 
		.txt18 { font-size: 29px;fill: #ffffff;font-family: "Roboto" } 
		.shp19 { fill: #4fc3f7 } 
		.shp20 { fill: #fc6681 } 
		.txt21 { font-size: 22px;fill: #ffffff;font-family: "Roboto" } 
		.txt22 { font-size: 26px;fill: #ffffff;font-family: "Roboto" } 
		.txt23 { font-size: 20px;fill: #3f3d56;font-family: "Roboto";text-anchor: middle } 
		.shp24 { opacity: 0.102;fill: #3f3d56 } 
		.shp25 { fill: #303d5c } 
		.shp26 { fill: #ee8e9e } 
		.shp27 { opacity: 0.051;fill: #000000 } 
		.shp28 { fill: #000000 } 
		.shp29 { fill: #a24787 } 
		.txt30 { font-size: 32px;fill: #ffffff;font-family: "Roboto" } 
	</style>
	<g id="Agenda">
		<path id="Tracé_3081" class="shp0" d="M1650.78 1761.13C1585.72 1971.91 1597.91 2259.07 1626.48 2485.49C1636.05 2561.3 1647.06 2641.32 1638.88 2726.16C1633.8 2778.86 1628.29 2787.36 1628.29 2787.36C1625.16 2791.97 1620.55 2799.03 1602.4 2821.98C1535.14 2906.82 1460.58 2887.77 1388.32 2882.98C1254.42 2852.7 1166.84 2823.48 1117.52 2750.97C1035.07 2629.6 1030.44 2621.22 932.13 2734.66C862.62 2814.73 786.09 2916.61 721.83 2858.93C676.62 2818.42 648.43 2704.15 635.27 2579.78C628.92 2519.74 625.08 2454.16 610.52 2408.42C608.82 2402.91 606.84 2397.49 604.6 2392.17C602.35 2386.86 599.85 2381.67 597.08 2376.61C594.32 2371.54 591.31 2366.62 588.05 2361.86C584.8 2357.1 581.31 2352.51 577.59 2348.1C464.88 2212 312.37 2325.79 203.68 2171.67C130.26 2067.62 88.52 1852.69 74.8 1622.86C61.08 1393.04 72.36 1147.13 86.49 905.01C96.54 732.87 110.13 548.71 155.26 408.72C202.99 260.64 278.23 194.42 343.64 208.47C409.04 222.53 465.83 305.5 514.77 406.93C575.94 533.68 631.12 695.56 710.29 736.45C764.22 764.31 823.11 732.06 880.46 713.83C976.21 683.33 1070.63 692.08 1164.38 703.53C1254.13 714.49 1344.43 728.12 1428.06 791.36C1487.23 836.15 1532.65 929.39 1587.88 990.02C1623.88 1029.54 1664.49 1034.57 1698.03 1087.26C1739.34 1152.18 1775.1 1272.01 1758.55 1423.5C1742.78 1567.6 1685.31 1649.28 1650.78 1761.13Z" />
		<g id="agenda-2">
			<g id="flower">
				<path id="Tracé_3085" class="shp1" d="M1289.03 820.97C1289.03 820.97 1482.25 659.07 1525.22 577.44C1568.18 495.81 1622.88 425.47 1622.88 425.47" />
				<path id="Tracé_3086" class="shp2" d="M1469.76 517.96L1517.85 589.99C1517.85 589.99 1423.83 596.78 1469.76 517.96Z" />
				<path id="Tracé_3087" class="shp2" d="M1517.32 475.87L1554.94 525.15C1554.94 525.15 1488.33 531.47 1517.32 475.87Z" />
				<path id="Tracé_3088" class="shp2" d="M1593.47 466.06C1593.47 466.06 1658.52 469.16 1666.17 475.38C1673.83 481.59 1656.47 518.04 1631.74 512.09C1607 506.14 1593.47 466.06 1593.47 466.06Z" />
				<path id="Tracé_3089" class="shp2" d="M1567.48 407.92C1567.48 407.92 1594.05 456.34 1593.05 465.56C1592.06 474.78 1552.55 485.13 1544.58 450.26C1536.6 415.39 1567.48 407.92 1567.48 407.92Z" />
				<path id="Ellipse_837" class="shp3" d="M1650.11 444.9C1647.1 454.44 1636.95 459.72 1627.42 456.7C1617.88 453.69 1612.6 443.55 1615.61 434.01C1618.63 424.47 1628.77 419.2 1638.31 422.21C1647.85 425.22 1653.12 435.37 1650.11 444.9Z" />
				<path id="Ellipse_838" class="shp3" d="M1621.8 426.29C1618.78 435.83 1608.64 441.1 1599.1 438.09C1589.56 435.08 1584.29 424.93 1587.3 415.4C1590.31 405.86 1600.46 400.58 1609.99 403.6C1619.53 406.61 1624.81 416.75 1621.8 426.29Z" />
			</g>
			<g id="Groupe_227">
				<path id="Tracé_3082" class="shp2" d="M493.53 2154.27C493.53 2154.27 525.81 2058.26 321.21 1942.52C321.21 1942.52 113.46 1881.94 134.71 1673.87C134.71 1673.87 -104.78 1849.32 57.27 2072.82C219.33 2296.31 359.2 2247.53 359.2 2247.53L493.53 2154.27Z" />
				<path id="Tracé_3083" class="shp1" d="M431.15 2197.64C431.15 2197.64 331.32 2089.74 235.63 2048.03C230.86 2045.88 226.18 2043.54 221.61 2041.01C217.03 2038.48 212.56 2035.76 208.21 2032.86C203.86 2029.96 199.63 2026.89 195.53 2023.64C191.43 2020.39 187.46 2016.98 183.65 2013.41C122.64 1957.66 96.04 1873.53 111.77 1792.4L134.77 1673.87" />
			</g>
			<g id="flower-2">
				<path id="Tracé_2953" class="shp4" d="M250.69 1251.36C249.97 1250.57 232.72 1231.46 214.95 1186.25C198.65 1144.78 178.88 1072.51 177.33 963.76C174.4 757.72 60.14 625.69 58.98 624.38L61.56 620.88C61.85 621.21 91.19 654.81 120.44 713.66C159.18 791.68 180.35 878.65 181.47 964.37C184.41 1170.06 252.51 1247.03 253.2 1247.79L250.69 1251.36Z" />
				<path id="Ellipse_800" class="shp4" d="M73.11 683.6C65.54 684.94 58.35 679.94 57.02 672.42C55.69 664.91 60.74 657.75 68.31 656.41C75.88 655.07 83.07 660.07 84.4 667.59C85.73 675.11 80.68 682.26 73.11 683.6Z" />
				<path id="Ellipse_801" class="shp2" d="M134.5 715.38C126.93 716.71 119.73 711.72 118.41 704.2C117.08 696.68 122.13 689.52 129.7 688.18C137.27 686.85 144.46 691.84 145.79 699.36C147.12 706.88 142.07 714.04 134.5 715.38Z" />
				<path id="Ellipse_803" class="shp4" d="M174.75 807.15C167.18 808.49 159.98 803.49 158.66 795.98C157.33 788.46 162.38 781.3 169.95 779.96C177.52 778.62 184.71 783.62 186.04 791.14C187.37 798.66 182.32 805.82 174.75 807.15Z" />
				<path id="Tracé_2954" class="shp4" d="M247 1266.86C247 1266.86 212.42 1215.1 137.06 1249.57L247 1266.86Z" />
				<path id="Ellipse_802" class="shp2" d="M118.67 775.41C111.1 776.74 103.91 771.75 102.58 764.23C101.25 756.71 106.3 749.55 113.87 748.22C121.44 746.88 128.63 751.87 129.96 759.39C131.29 766.91 126.24 774.07 118.67 775.41Z" />
				<path id="Ellipse_804" class="shp4" d="M150.75 867.15C143.18 868.49 135.98 863.49 134.66 855.98C133.33 848.46 138.38 841.3 145.95 839.96C153.52 838.62 160.71 843.62 162.04 851.14C163.37 858.66 158.32 865.82 150.75 867.15Z" />
				<path id="Ellipse_805" class="shp2" d="M193.5 878.38C185.93 879.71 178.73 874.72 177.41 867.2C176.08 859.68 181.13 852.52 188.7 851.18C196.27 849.85 203.46 854.84 204.79 862.36C206.12 869.88 201.07 877.04 193.5 878.38Z" />
				<path id="Ellipse_806" class="shp2" d="M161.5 946.38C153.93 947.71 146.73 942.72 145.41 935.2C144.08 927.68 149.13 920.52 156.7 919.18C164.27 917.85 171.46 922.84 172.79 930.36C174.12 937.88 169.07 945.04 161.5 946.38Z" />
				<path id="Ellipse_807" class="shp4" d="M201.5 996.38C193.93 997.71 186.73 992.72 185.41 985.2C184.08 977.68 189.13 970.52 196.7 969.18C204.27 967.85 211.46 972.84 212.79 980.36C214.12 987.88 209.07 995.04 201.5 996.38Z" />
				<path id="Ellipse_808" class="shp2" d="M209.5 1064.38C201.93 1065.71 194.73 1060.72 193.41 1053.2C192.08 1045.68 197.13 1038.52 204.7 1037.18C212.27 1035.85 219.46 1040.84 220.79 1048.36C222.12 1055.88 217.07 1063.04 209.5 1064.38Z" />
				<path id="Ellipse_809" class="shp4" d="M166.5 1037.38C158.93 1038.71 151.73 1033.72 150.41 1026.2C149.08 1018.68 154.13 1011.52 161.7 1010.18C169.27 1008.85 176.46 1013.84 177.79 1021.36C179.12 1028.88 174.07 1036.04 166.5 1037.38Z" />
				<path id="Ellipse_810" class="shp2" d="M173.5 1117.38C165.93 1118.71 158.73 1113.72 157.41 1106.2C156.08 1098.68 161.13 1091.52 168.7 1090.18C176.27 1088.85 183.46 1093.84 184.79 1101.36C186.12 1108.88 181.07 1116.04 173.5 1117.38Z" />
				<path id="Ellipse_811" class="shp4" d="M225.5 1138.38C217.93 1139.71 210.73 1134.72 209.41 1127.2C208.08 1119.68 213.13 1112.52 220.7 1111.18C228.27 1109.85 235.46 1114.84 236.79 1122.36C238.12 1129.88 233.07 1137.04 225.5 1138.38Z" />
				<path id="Ellipse_812" class="shp2" d="M205.5 1216.38C197.93 1217.71 190.73 1212.72 189.41 1205.2C188.08 1197.68 193.13 1190.52 200.7 1189.18C208.27 1187.85 215.46 1192.84 216.79 1200.36C218.12 1207.88 213.07 1215.04 205.5 1216.38Z" />
			</g>
			<g id="Content">
				<g id="window">
					<path id="Tracé_2659" class="shp5" d="M1434.83 1.5L259.07 1.5C257.66 1.53 256.28 1.84 254.99 2.41C253.7 2.97 252.54 3.79 251.57 4.8C250.6 5.82 249.83 7.02 249.32 8.33C248.81 9.64 248.57 11.04 248.6 12.44L248.6 44.33L1445.3 44.33L1445.3 12.44C1445.33 11.04 1445.08 9.64 1444.57 8.33C1444.06 7.02 1443.3 5.82 1442.32 4.8C1441.35 3.79 1440.19 2.97 1438.9 2.41C1437.62 1.84 1436.23 1.53 1434.82 1.5L1434.83 1.5Z" />
					<path id="Tracé_2660" class="shp6" d="M248.6 44.33L248.6 2732.1C248.6 2777.75 258.05 2814.76 269.72 2814.76L1424.18 2814.76C1435.84 2814.76 1445.3 2777.75 1445.3 2732.1L1445.3 44.33L248.6 44.33Z" />
					<path id="Ellipse_401" class="shp7" d="M269.82 27.69C266.79 27.69 264.34 25.41 264.34 22.58C264.34 19.75 266.79 17.47 269.82 17.47C272.84 17.47 275.29 19.75 275.29 22.58C275.29 25.41 272.84 27.69 269.82 27.69Z" />
					<path id="Ellipse_402" class="shp8" d="M284.87 27.69C281.84 27.69 279.4 25.41 279.4 22.58C279.4 19.75 281.84 17.47 284.87 17.47C287.9 17.47 290.35 19.75 290.35 22.58C290.35 25.41 287.9 27.69 284.87 27.69Z" />
					<path id="Ellipse_403" class="shp9" d="M299.93 27.69C296.9 27.69 294.45 25.41 294.45 22.58C294.45 19.75 296.9 17.47 299.93 17.47C302.96 17.47 305.41 19.75 305.41 22.58C305.41 25.41 302.96 27.69 299.93 27.69Z" />
				</g>
				<g id="table">
					<path id="Tracé_2846" class="shp10" d="M319.24 238.04L1346.87 238.04" />
					<path id="Tracé_2846-2" class="shp10" d="M319.24 335.04L1346.87 335.04" />
					<path id="Tracé_2846-3" class="shp10" d="M319.24 432.04L1346.87 432.04" />
					<path id="Tracé_2846-4" class="shp10" d="M319.24 529.04L1346.87 529.04" />
					<path id="Tracé_2846-5" class="shp10" d="M319.24 626.04L1346.87 626.04" />
					<path id="Tracé_2846-6" class="shp10" d="M319.24 723.04L1346.87 723.04" />
					<path id="Tracé_2846-7" class="shp10" d="M319.24 820.04L1346.87 820.04" />
					<path id="Tracé_2846-8" class="shp10" d="M319.24 917.04L1346.87 917.04" />
					<path id="Tracé_2846-9" class="shp10" d="M319.24 1014.04L1346.87 1014.04" />
					<path id="Tracé_2846-10" class="shp10" d="M319.24 1111.04L1346.87 1111.04" />
					<path id="Tracé_2846-11" class="shp10" d="M319.24 1208.04L1346.87 1208.04" />
					<path id="Tracé_2846-12" class="shp10" d="M319.24 1305.04L1346.87 1305.04" />
					<path id="Tracé_2846-13" class="shp10" d="" />
					<path id="Ligne_19" class="shp11" d="M1347.16 158.2L492.16 158.2" />
					<path id="Tracé_2955" class="shp11" d="M317.52 1306.59L319.16 238.2" />
					<path id="Tracé_2846-14" class="shp10" d="M493.35 1304L491.86 194L491.86 159.43" />
					<path id="Tracé_2846-15" class="shp10" d="M665.74 1304.86L662.86 194L662.86 159.43" />
					<path id="Tracé_2846-16" class="shp10" d="M833.06 1305.04L833.06 159.43" />
					<path id="Tracé_2846-17" class="shp10" d="M999.24 1305.04L999.24 159.43" />
					<path id="Tracé_2846-18" class="shp10" d="M1167.38 1305.73L1175.86 194L1175.86 159.43" />
					<path id="Tracé_2846-19" class="shp10" d="M1346.87 1305.73L1346.87 159.43" />
					<path id="Tracé_2846-20" class="shp10" d="" />
				</g>
				<g id="_8:30">
					<g id="time">
						<path id="Rectangle_506" class="shp4" d="M332.66 263.7L468.41 263.7L468.41 302.43L332.66 302.43L332.66 263.7Z" />
						<text id="08:30 - 09:30" style="transform: matrix(1,0,0,1,348.656,289.702)" >
							<tspan x="0" y="0" class="txt12">08:30 - 09:30</tspan>
						</text>
					</g>
					<path id="Rectangle_617" class="shp13" d="M506.66 238.7L795.66 238.7L795.66 333.7L506.66 333.7L506.66 238.7Z" />
					<text id="Check-in " style="transform: matrix(1,0,0,1,612.181,291.702)" >
						<tspan x="0" y="0" class="txt14">Check-in</tspan>
					</text>
				</g>
				<g id="welcoming">
					<path id="Rectangle_598" class="shp15" d="M510.66 175.7L646.41 175.7L646.41 214.43L510.66 214.43L510.66 175.7Z" />
					<text id="Conferences" style="transform: matrix(1,0,0,1,527.656,201.702)" >
						<tspan x="0" y="0" class="txt12">Conferences</tspan>
					</text>
				</g>
				<g id="talks">
					<path id="Rectangle_599" class="shp2" d="M682.66 175.7L818.41 175.7L818.41 214.43L682.66 214.43L682.66 175.7Z" />
					<text id="Tracks" style="transform: matrix(1,0,0,1,723.656,201.702)" >
						<tspan x="0" y="0" class="txt12">Tracks</tspan>
					</text>
				</g>
				<g id="_9:15">
					<path id="Rectangle_588" class="shp4" d="M332.66 459.7L468.41 459.7L468.41 498.43L332.66 498.43L332.66 459.7Z" />
					<text id="10:00 - 10:20 " style="transform: matrix(1,0,0,1,339.656,485.702)" >
						<tspan x="0" y="0" class="txt12">10:00 - 10:20</tspan>
					</text>
				</g>
				<g id="breaks">
					<path id="Rectangle_600" class="shp16" d="M850.66 175.7L986.41 175.7L986.41 214.43L850.66 214.43L850.66 175.7Z" />
					<text id="Breaks" style="transform: matrix(1,0,0,1,890.656,201.702)" >
						<tspan x="0" y="0" class="txt12">Breaks</tspan>
					</text>
				</g>
				<g id="_12:00">
					<g id="_12:00-2">
						<path id="Rectangle_594" class="shp16" d="M332.66 1046.7L468.41 1046.7L468.41 1085.43L332.66 1085.43L332.66 1046.7Z" />
						<text id="13:00 - 14:00 " style="transform: matrix(1,0,0,1,341.656,1073.702)" >
							<tspan x="0" y="0" class="txt12">13:00 - 14:00</tspan>
						</text>
					</g>
					<g id="Lunch">
						<path id="Rectangle_615" class="shp17" d="M858.66 1024.06L981.2 1024.06L981.2 1102.82L858.66 1102.82L858.66 1024.06Z" />
						<g id="Prayer_Break">
							<text id="Prayer" style="transform: matrix(1,0,0,1,875.549,1055.637)" >
								<tspan x="0" y="0" class="txt18">Prayer</tspan>
							</text>
							<text id="Break" style="transform: matrix(1,0,0,1,879.804,1093.637)" >
								<tspan x="0" y="0" class="txt18">Break</tspan>
							</text>
						</g>
					</g>
					<g id="Lunch-2">
						<path id="Rectangle_615-2" class="shp17" d="M858.66 926.06L981.2 926.06L981.2 1004.82L858.66 1004.82L858.66 926.06Z" />
						<g id="Lunch_Break">
							<text id="Lunch" style="transform: matrix(1,0,0,1,877.595,957.637)" >
								<tspan x="0" y="0" class="txt18">Lunch</tspan>
							</text>
							<text id="Break" style="transform: matrix(1,0,0,1,879.804,995.637)" >
								<tspan x="0" y="0" class="txt18">Break</tspan>
							</text>
						</g>
					</g>
				</g>
				<g id="_09:00">
					<g id="time-2">
						<path id="Rectangle_587" class="shp4" d="M332.66 361.7L468.41 361.7L468.41 400.43L332.66 400.43L332.66 361.7Z" />
						<text id="09:30 - 10:00 " style="transform: matrix(1,0,0,1,340.656,387.702)" >
							<tspan x="0" y="0" class="txt12">09:30 - 10:00</tspan>
						</text>
					</g>
				</g>
				<g id="workshops">
					<path id="Rectangle_602" class="shp19" d="M1193.66 175.7L1329.41 175.7L1329.41 214.43L1193.66 214.43L1193.66 175.7Z" />
					<text id="Career Fair" style="transform: matrix(1,0,0,1,1217.656,201.702)" >
						<tspan x="0" y="0" class="txt12">Career Fair</tspan>
					</text>
				</g>
				<g id="_9:30">
					<path id="Rectangle_589" class="shp4" d="M332.66 556.7L468.41 556.7L468.41 595.43L332.66 595.43L332.66 556.7Z" />
					<text id="10:20 - 10:45 " style="transform: matrix(1,0,0,1,338.656,583.702)" >
						<tspan x="0" y="0" class="txt12">10:20 - 10:45</tspan>
					</text>
				</g>
				<g id="_10:00">
					<path id="Rectangle_590" class="shp4" d="M332.66 654.7L468.41 654.7L468.41 693.43L332.66 693.43L332.66 654.7Z" />
					<text id="10:45 - 11:15 " style="transform: matrix(1,0,0,1,341.656,680.702)" >
						<tspan x="0" y="0" class="txt12">10:45 - 11:15</tspan>
					</text>
				</g>
				<g id="_10:30">
					<path id="Rectangle_591" class="shp4" d="M332.66 751.7L468.41 751.7L468.41 790.43L332.66 790.43L332.66 751.7Z" />
					<text id="11:20 - 11:40 " style="transform: matrix(1,0,0,1,339.656,778.702)" >
						<tspan x="0" y="0" class="txt12">11:20 - 11:40</tspan>
					</text>
				</g>
				<g id="_11:00">
					<path id="Rectangle_592" class="shp4" d="M332.66 846.7L468.41 846.7L468.41 885.43L332.66 885.43L332.66 846.7Z" />
					<text id="11:40 - 11:55 " style="transform: matrix(1,0,0,1,338.656,871.702)" >
						<tspan x="0" y="0" class="txt12">11:40 - 11:55</tspan>
					</text>
				</g>
				<g id="_11:30">
					<path id="Rectangle_593" class="shp17" d="M332.66 945.7L468.41 945.7L468.41 984.43L332.66 984.43L332.66 945.7Z" />
					<text id="12:00 - 13:00 " style="transform: matrix(1,0,0,1,340.656,971.702)" >
						<tspan x="0" y="0" class="txt12">12:00 - 13:00</tspan>
					</text>
				</g>
				<g id="_15:00">
					<path id="Rectangle_596" class="shp4" d="M332.66 1235.7L468.41 1235.7L468.41 1274.43L332.66 1274.43L332.66 1235.7Z" />
					<text id="17:00 - 17:15 " style="transform: matrix(1,0,0,1,339.656,1260.702)" >
						<tspan x="0" y="0" class="txt12">17:00 - 17:15</tspan>
					</text>
				</g>
				<g id="Design_Thinking">
					<path id="Rectangle_601" class="shp20" d="M1022.66 175.7L1158.41 175.7L1158.41 214.43L1022.66 214.43L1022.66 175.7Z" />
					<text id="Ideathon" style="transform: matrix(1,0,0,1,1055.656,201.702)" >
						<tspan x="0" y="0" class="txt12">Ideathon</tspan>
					</text>
				</g>
				<g id="_13:00">
					<path id="Rectangle_595" class="shp4" d="M332.66 1140.7L468.41 1140.7L468.41 1179.43L332.66 1179.43L332.66 1140.7Z" />
					<text id="14:00 - 17:00 " style="transform: matrix(1,0,0,1,337.656,1166.702)" >
						<tspan x="0" y="0" class="txt12">14:00 - 17:00</tspan>
					</text>
				</g>
				<g id="_8:30-2">
					<g id="time-3">
						<path id="Rectangle_506-2" class="shp4" d="M332.66 263.7L468.41 263.7L468.41 302.43L332.66 302.43L332.66 263.7Z" />
						<text id="08:30 - 09:30 " style="transform: matrix(1,0,0,1,340.656,290.702)" >
							<tspan x="0" y="0" class="txt12">08:30 - 09:30</tspan>
						</text>
					</g>
					<g id="WTM_BreakFast">
						<text id="WTM" style="transform: matrix(1,0,0,1,889.655,276.702)" >
							<tspan x="0" y="0" class="txt14">WTM</tspan>
						</text>
						<text id="BreakFast" style="transform: matrix(1,0,0,1,866.553,305.702)" >
							<tspan x="0" y="0" class="txt14">BreakFast</tspan>
						</text>
					</g>
				</g>
				<text id="Registrations" style="transform: matrix(1,0,0,1,1020.181,291.702)" >
					<tspan x="0" y="0" class="txt14">Registrations</tspan>
				</text>
				<path id="Rectangle_620" class="shp13" d="M523.66 335.7L812.66 335.7L812.66 430.7L523.66 430.7L523.66 335.7Z" />
				<text id="Openning Ceremony" style="transform: matrix(1,0,0,1,569.597,391.702)" >
					<tspan x="0" y="0" class="txt14">Openning Ceremony</tspan>
				</text>
				<g id="Welcoming_Ceremony">
					<text id="Welcoming " style="transform: matrix(1,0,0,1,1033.094,376.702)" >
						<tspan x="0" y="0" class="txt14">Welcoming </tspan>
					</text>
					<text id="Ceremony" style="transform: matrix(1,0,0,1,1040.93,405.702)" >
						<tspan x="0" y="0" class="txt14">Ceremony</tspan>
					</text>
				</g>
				<path id="Rectangle_622" class="shp2" d="M677.66 459.7L820.66 459.7L820.66 885.7L677.66 885.7L677.66 459.7Z" />
				<g id="Web_Track">
					<text id="Web " style="transform: matrix(1,0,0,1,725.175,521.702)" >
						<tspan x="0" y="0" class="txt21">Web </tspan>
					</text>
					<text id="Track" style="transform: matrix(1,0,0,1,722.672,550.702)" >
						<tspan x="0" y="0" class="txt21">Track</tspan>
					</text>
				</g>
				<g id="Mobile_Track">
					<text id="Mobile" style="transform: matrix(1,0,0,1,716.441,608.702)" >
						<tspan x="0" y="0" class="txt21">Mobile</tspan>
					</text>
					<text id="Track" style="transform: matrix(1,0,0,1,722.672,637.702)" >
						<tspan x="0" y="0" class="txt21">Track</tspan>
					</text>
				</g>
				<g id="Ai_Track">
					<text id="Ai" style="transform: matrix(1,0,0,1,739.811,695.702)" >
						<tspan x="0" y="0" class="txt21">Ai</tspan>
					</text>
					<text id="Track" style="transform: matrix(1,0,0,1,722.672,724.702)" >
						<tspan x="0" y="0" class="txt21">Track</tspan>
					</text>
				</g>
				<g id="Non_Programmers_Track">
					<text id="Non" style="transform: matrix(1,0,0,1,729.471,782.702)" >
						<tspan x="0" y="0" class="txt21">Non</tspan>
					</text>
					<text id="Programmers" style="transform: matrix(1,0,0,1,682.662,811.702)" >
						<tspan x="0" y="0" class="txt21">Programmers</tspan>
					</text>
					<text id="Track" style="transform: matrix(1,0,0,1,722.672,840.702)" >
						<tspan x="0" y="0" class="txt21">Track</tspan>
					</text>
				</g>
				<g id="Rules_Info_Presentation">
					<text id="Rules" style="transform: matrix(1,0,0,1,1057.65,458.702)" >
						<tspan x="0" y="0" class="txt14">Rules</tspan>
					</text>
					<text id="Info" style="transform: matrix(1,0,0,1,1065.503,487.702)" >
						<tspan x="0" y="0" class="txt14">Info</tspan>
					</text>
					<text id="Presentation" style="transform: matrix(1,0,0,1,1022.416,516.702)" >
						<tspan x="0" y="0" class="txt14">Presentation</tspan>
					</text>
				</g>
				<g id="Safe_Cyber_World_for_Women">
					<text id="Safe Cyber " style="transform: matrix(1,0,0,1,1028.968,555.702)" >
						<tspan x="0" y="0" class="txt14">Safe Cyber </tspan>
					</text>
					<text id="World" style="transform: matrix(1,0,0,1,1056.195,584.702)" >
						<tspan x="0" y="0" class="txt14">World</tspan>
					</text>
					<text id="for Women" style="transform: matrix(1,0,0,1,1030.714,613.702)" >
						<tspan x="0" y="0" class="txt14">for Women</tspan>
					</text>
				</g>
				<g id="Laws_Against_Cyber_Attacks">
					<text id="Laws Against" style="transform: matrix(1,0,0,1,1024.758,666.702)" >
						<tspan x="0" y="0" class="txt14">Laws Against</tspan>
					</text>
					<text id="Cyber Attacks " style="transform: matrix(1,0,0,1,1016.588,696.702)" >
						<tspan x="0" y="0" class="txt14">Cyber Attacks</tspan>
					</text>
				</g>
				<g id="Team_Foundation">
					<text id="Team" style="transform: matrix(1,0,0,1,1057.64,762.702)" >
						<tspan x="0" y="0" class="txt14">Team</tspan>
					</text>
					<text id="Formation " style="transform: matrix(1,0,0,1,1030.489,791.702)" >
						<tspan x="0" y="0" class="txt14">Formation</tspan>
					</text>
				</g>
				<g id="Design_Thinking_Canvas">
					<text id="Design Thinking" style="transform: matrix(1,0,0,1,1007.678,860.702)" >
						<tspan x="0" y="0" class="txt14">Design Thinking</tspan>
					</text>
					<text id="Canvas" style="transform: matrix(1,0,0,1,1049.541,889.702)" >
						<tspan x="0" y="0" class="txt14">Canvas</tspan>
					</text>
				</g>
				<path id="Rectangle_623" class="shp13" d="M523.66 1208.7L812.66 1208.7L812.66 1303.7L523.66 1303.7L523.66 1208.7Z" />
				<text id="Workshops Wrap Up" style="transform: matrix(1,0,0,1,569.586,1265.702)" >
					<tspan x="0" y="0" class="txt14">Workshops Wrap Up</tspan>
				</text>
				<text id="Wrap Up" style="transform: matrix(1,0,0,1,1044.32,1265.702)" >
					<tspan x="0" y="0" class="txt14">Wrap Up</tspan>
				</text>
				<g id="table-2">
					<path id="Tracé_2846-21" class="shp10" d="M319.24 1508.04L1346.87 1508.04" />
					<path id="Tracé_2846-22" class="shp10" d="M319.24 1605.04L1346.87 1605.04" />
					<path id="Tracé_2846-23" class="shp10" d="M319.24 1702.04L1346.87 1702.04" />
					<path id="Tracé_2846-24" class="shp10" d="M319.24 1799.04L1346.87 1799.04" />
					<path id="Tracé_2846-25" class="shp10" d="M319.24 1896.04L1346.87 1896.04" />
					<path id="Tracé_2846-26" class="shp10" d="M319.24 1993.04L1346.87 1993.04" />
					<path id="Tracé_2846-27" class="shp10" d="M319.24 2090.04L1346.87 2090.04" />
					<path id="Tracé_2846-28" class="shp10" d="M319.24 2187.04L1346.87 2187.04" />
					<path id="Tracé_2846-29" class="shp10" d="M319.24 2284.04L1346.87 2284.04" />
					<path id="Tracé_2846-30" class="shp10" d="M319.24 2381.04L1346.87 2381.04" />
					<path id="Tracé_2846-31" class="shp10" d="M319.24 2478.04L1346.87 2478.04" />
					<path id="Tracé_2846-32" class="shp10" d="M319.24 2575.04L1346.87 2575.04" />
					<path id="Tracé_2846-33" class="shp10" d="" />
					<path id="Ligne_19-2" class="shp11" d="M1347.16 1428.2L498.16 1429.2" />
					<path id="Tracé_2955-2" class="shp11" d="M319.24 2672.03L317.52 1508.2" />
					<path id="Tracé_2846-34" class="shp10" d="M500.23 2672.04L497.77 1466.96L497.77 1429.43" />
					<path id="Tracé_2846-35" class="shp10" d="M665.74 2672.04L665.16 1466.94L665.16 1429.43" />
					<path id="Tracé_2846-36" class="shp10" d="M833.06 2672.04L833.06 1429.43" />
					<path id="Tracé_2846-37" class="shp10" d="M1002.42 2672.04L1002.42 1429.43" />
					<path id="Tracé_2846-38" class="shp10" d="M1169.82 2672.04L1175.86 1466.91L1175.86 1429.43" />
					<path id="Tracé_2846-39" class="shp10" d="M1346.87 2672.04L1346.87 1429.43" />
					<path id="Tracé_2846-40" class="shp10" d="" />
					<path id="Tracé_3090" class="shp10" d="M319.24 2672.04L1346.87 2672.04" />
				</g>
				<g id="_8:30-3">
					<g id="time-4">
						<path id="Rectangle_506-3" class="shp4" d="M341.66 1533.7L477.41 1533.7L477.41 1572.43L341.66 1572.43L341.66 1533.7Z" />
						<text id="08:00 - 09:00 " style="transform: matrix(1,0,0,1,350.656,1559.702)" >
							<tspan x="0" y="0" class="txt12">08:00 - 09:00</tspan>
						</text>
					</g>
					<path id="Rectangle_617-2" class="shp13" d="M506.66 1508.7L1160.66 1508.7L1160.66 1603.7L506.66 1603.7L506.66 1508.7Z" />
					<text id="Check-in / WTM Breakfast " style="transform: matrix(1,0,0,1,683.453,1561.702)" >
						<tspan x="0" y="0" class="txt14">Check-in / WTM Breakfast</tspan>
					</text>
				</g>
				<g id="welcoming-2">
					<path id="Rectangle_598-2" class="shp15" d="M510.66 1445.7L646.41 1445.7L646.41 1484.43L510.66 1484.43L510.66 1445.7Z" />
					<text id="Conferences" style="transform: matrix(1,0,0,1,527.656,1471.702)" >
						<tspan x="0" y="0" class="txt12">Conferences</tspan>
					</text>
				</g>
				<g id="talks-2">
					<path id="Rectangle_599-2" class="shp2" d="M682.66 1445.7L818.41 1445.7L818.41 1484.43L682.66 1484.43L682.66 1445.7Z" />
					<text id="Tracks" style="transform: matrix(1,0,0,1,723.656,1471.702)" >
						<tspan x="0" y="0" class="txt12">Tracks</tspan>
					</text>
				</g>
				<g id="_9:15-2">
					<path id="Rectangle_588-2" class="shp4" d="M341.66 1729.7L477.41 1729.7L477.41 1768.43L341.66 1768.43L341.66 1729.7Z" />
					<text id="09:25 - 9:45" style="transform: matrix(1,0,0,1,357.656,1755.702)" >
						<tspan x="0" y="0" class="txt12">09:25 - 9:45</tspan>
					</text>
				</g>
				<g id="breaks-3">
					<path id="Rectangle_600-2" class="shp16" d="M850.66 1445.7L986.41 1445.7L986.41 1484.43L850.66 1484.43L850.66 1445.7Z" />
					<text id="Breaks" style="transform: matrix(1,0,0,1,890.656,1471.702)" >
						<tspan x="0" y="0" class="txt12">Breaks</tspan>
					</text>
				</g>
				<g id="_12:00-3">
					<g id="_12:00-4">
						<path id="Rectangle_594-2" class="shp16" d="M340.66 2316.7L476.41 2316.7L476.41 2355.43L340.66 2355.43L340.66 2316.7Z" />
						<text id="12:00 - 13:00 " style="transform: matrix(1,0,0,1,356.656,2342.702)" >
							<tspan x="0" y="0" class="txt12">12:00 - 13:00</tspan>
						</text>
					</g>
				</g>
				<g id="_09:00-2">
					<g id="time-5">
						<path id="Rectangle_587-2" class="shp4" d="M340.66 1631.7L476.41 1631.7L476.41 1670.43L340.66 1670.43L340.66 1631.7Z" />
						<text id="09:00 - 09:20 " style="transform: matrix(1,0,0,1,349.656,1656.702)" >
							<tspan x="0" y="0" class="txt12">09:00 - 09:20</tspan>
						</text>
					</g>
				</g>
				<g id="workshops-2">
					<path id="Rectangle_602-2" class="shp19" d="M1193.66 1445.7L1329.41 1445.7L1329.41 1484.43L1193.66 1484.43L1193.66 1445.7Z" />
					<text id="Career Fair" style="transform: matrix(1,0,0,1,1217.656,1471.702)" >
						<tspan x="0" y="0" class="txt12">Career Fair</tspan>
					</text>
				</g>
				<g id="_9:30-2">
					<path id="Rectangle_589-2" class="shp4" d="M340.66 1826.7L476.41 1826.7L476.41 1865.43L340.66 1865.43L340.66 1826.7Z" />
					<text id="09:45 - 10:00 " style="transform: matrix(1,0,0,1,350.656,1850.702)" >
						<tspan x="0" y="0" class="txt12">09:45 - 10:00</tspan>
					</text>
				</g>
				<g id="_10:00-2">
					<path id="Rectangle_590-2" class="shp16" d="M339.66 1924.7L475.41 1924.7L475.41 1963.43L339.66 1963.43L339.66 1924.7Z" />
					<text id="10:00 - 10:15 " style="transform: matrix(1,0,0,1,348.656,1950.702)" >
						<tspan x="0" y="0" class="txt12">10:00 - 10:15</tspan>
					</text>
				</g>
				<g id="_10:30-2">
					<path id="Rectangle_591-2" class="shp4" d="M339.66 2021.7L475.41 2021.7L475.41 2060.43L339.66 2060.43L339.66 2021.7Z" />
					<text id="10:15 - 11:00 " style="transform: matrix(1,0,0,1,346.656,2048.702)" >
						<tspan x="0" y="0" class="txt12">10:15 - 11:00</tspan>
					</text>
				</g>
				<g id="_11:00-2">
					<path id="Rectangle_592-2" class="shp4" d="M340.66 2116.7L476.41 2116.7L476.41 2155.43L340.66 2155.43L340.66 2116.7Z" />
					<text id="11:00 - 11:20 " style="transform: matrix(1,0,0,1,347.656,2141.702)" >
						<tspan x="0" y="0" class="txt12">11:00 - 11:20</tspan>
					</text>
					<text id=" " style="transform: matrix(1,0,0,1,424,2087)" >
					</text>
				</g>
				<g id="_11:30-2">
					<path id="Rectangle_593-2" class="shp4" d="M340.66 2215.7L476.41 2215.7L476.41 2254.43L340.66 2254.43L340.66 2215.7Z" />
					<text id="11:20 - 11:40 " style="transform: matrix(1,0,0,1,348.656,2243.702)" >
						<tspan x="0" y="0" class="txt12">11:20 - 11:40</tspan>
					</text>
				</g>
				<g id="_15:00-2">
					<path id="Rectangle_596-2" class="shp4" d="M339.66 2505.7L475.41 2505.7L475.41 2544.43L339.66 2544.43L339.66 2505.7Z" />
					<text id="14:30 - 15:00 " style="transform: matrix(1,0,0,1,348.656,2532.702)" >
						<tspan x="0" y="0" class="txt12">14:30 - 15:00</tspan>
					</text>
				</g>
				<g id="Design_Thinking-2">
					<path id="Rectangle_601-2" class="shp20" d="M1022.66 1445.7L1158.41 1445.7L1158.41 1484.43L1022.66 1484.43L1022.66 1445.7Z" />
					<text id="Ideathon" style="transform: matrix(1,0,0,1,1055.656,1471.702)" >
						<tspan x="0" y="0" class="txt12">Ideathon</tspan>
					</text>
				</g>
				<g id="_13:00-2">
					<path id="Rectangle_595-2" class="shp4" d="M339.66 2410.7L475.41 2410.7L475.41 2449.43L339.66 2449.43L339.66 2410.7Z" />
					<text id="13:00 - 14:30 " style="transform: matrix(1,0,0,1,347.656,2437.702)" >
						<tspan x="0" y="0" class="txt12">13:00 - 14:30</tspan>
					</text>
				</g>
				<path id="Tracé_3091" class="shp19" d="M1193.66 1527.7L1329.66 1527.7L1329.66 1974.03L1193.66 1974.03L1193.66 1527.7Z" />
				<g id="Groupe_228">
					<path id="Rectangle_705" class="shp4" d="M339.66 2602.7L475.41 2602.7L475.41 2641.43L339.66 2641.43L339.66 2602.7Z" />
					<text id="15:00 - 15:30 " style="transform: matrix(1,0,0,1,348.656,2628.702)" >
						<tspan x="0" y="0" class="txt12">15:00 - 15:30</tspan>
					</text>
				</g>
				<text id="Keynote" style="transform: matrix(1,0,0,1,538.964,1659.702)" >
					<tspan x="0" y="0" class="txt14">Keynote</tspan>
				</text>
				<g id="Non_Tech_Conf">
					<text id="Cybersecurity " style="transform: matrix(1,0,0,1,505.404,1754.702)" >
						<tspan x="0" y="0" class="txt14">Cybersecurity</tspan>
					</text>
				</g>
				<text id="Mobile/Web " style="transform: matrix(1,0,0,1,517.404,1853.702)" >
					<tspan x="0" y="0" class="txt14">Mobile/Web</tspan>
				</text>
				<g id="breaks-5">
					<path id="Rectangle_600-3" class="shp16" d="M510.66 1912.93L1158.41 1912.93L1158.41 1974.03L510.66 1974.03L510.66 1912.93Z" />
					<text id="FUN ACTIVITY " style="transform: matrix(1,0,0,1,776.656,1953.702)" >
						<tspan x="0" y="0" class="txt22">FUN ACTIVITY</tspan>
					</text>
				</g>
				<path id="Tracé_3092" class="shp20" d="M1020.66 1627.7L1156.66 1627.7L1156.66 1865.43L1020.66 1865.43L1020.66 1627.7Z" />
				<text id="Women Panel " style="transform: matrix(1,0,0,1,506.404,2054.702)" >
					<tspan x="0" y="0" class="txt14">Women Panel</tspan>
				</text>
				<g id="Women_Pannel">
					<text id="AI &amp; BigData " style="transform: matrix(1,0,0,1,516.252,2144.702)" >
						<tspan x="0" y="0" class="txt14">AI &amp; BigData</tspan>
					</text>
					<text id=" " style="transform: matrix(1,0,0,1,374.156,2109.702)" >
					</text>
				</g>
				<g id="Non_Tech_Conf-2">
					<text id="Human-centered products  " style="transform: matrix(1,0,0,1,583.748,2234.702)" >
						<tspan x="0" y="0" class="txt23">Human-centered</tspan>
						<tspan x="0" y="22.4" class="txt23">products </tspan>
					</text>
					<text id=" " style="transform: matrix(1,0,0,1,357.404,2200.702)" >
					</text>
				</g>
				<g id="breaks-6">
					<path id="Rectangle_600-4" class="shp16" d="M510.66 2304.93L1158.41 2304.93L1158.41 2366.03L510.66 2366.03L510.66 2304.93Z" />
					<text id="Lunch Break" style="transform: matrix(1,0,0,1,762.656,2345.702)" >
						<tspan x="0" y="0" class="txt22">Lunch Break</tspan>
					</text>
					<text id="Lunch Break" style="transform: matrix(1,0,0,1,762.656,2447.702)" >
						<tspan x="0" y="0" class="txt22">Lunch Break</tspan>
					</text>
				</g>
				<path id="Rectangle_706" class="shp20" d="M510.66 2406.7L1329.41 2406.7L1329.41 2467.79L510.66 2467.79L510.66 2406.7Z" />
				<text id="Selected Teams Presentation" style="transform: matrix(1,0,0,1,750.656,2447.702)" >
					<tspan x="0" y="0" class="txt22">Selected Teams Presentation</tspan>
				</text>
				<path id="Rectangle_707" class="shp20" d="M510.66 2497.7L1329.41 2497.7L1329.41 2558.79L510.66 2558.79L510.66 2497.7Z" />
				<text id="Judges Deliberation" style="transform: matrix(1,0,0,1,804.656,2538.702)" >
					<tspan x="0" y="0" class="txt22">Judges Deliberation</tspan>
				</text>
				<path id="Rectangle_708" class="shp20" d="M510.66 2588.7L1329.41 2588.7L1329.41 2649.79L510.66 2649.79L510.66 2588.7Z" />
				<text id="Closing Ceremony" style="transform: matrix(1,0,0,1,814.656,2629.702)" >
					<tspan x="0" y="0" class="txt22">Closing Ceremony</tspan>
				</text>
			</g>
			<g id="Woman">
				<path id="Rectangle_536" class="shp24" d="M1516.94 958.53L1608.26 958.53L1608.26 1003.33L1516.94 1003.33L1516.94 958.53Z" />
				<path id="Rectangle_537" class="shp24" d="M1516.94 1084.32L1608.26 1084.32L1608.26 1129.12L1516.94 1129.12L1516.94 1084.32Z" />
				<path id="Rectangle_538" class="shp24" d="M1516.94 1210.11L1608.26 1210.11L1608.26 1254.91L1516.94 1254.91L1516.94 1210.11Z" />
				<path id="Rectangle_539" class="shp24" d="M1516.94 1335.9L1608.26 1335.9L1608.26 1380.7L1516.94 1380.7L1516.94 1335.9Z" />
				<path id="Tracé_2662" class="shp25" d="M1577.2 936.19C1590.98 938.41 1606.32 943.72 1611.66 956.65C1615.64 966.42 1612.56 977.41 1611.54 987.91C1611.44 988.6 1611.38 989.29 1611.34 989.99C1611.3 990.68 1611.3 991.38 1611.32 992.08C1611.35 992.78 1611.4 993.47 1611.49 994.16C1611.57 994.86 1611.69 995.55 1611.83 996.23C1612.97 1000.66 1616.11 1004.24 1619.14 1007.67C1620.19 1008.76 1621.2 1009.88 1622.17 1011.04C1623.13 1012.21 1624.06 1013.4 1624.94 1014.64C1625.81 1015.87 1626.65 1017.13 1627.43 1018.42C1628.21 1019.72 1628.95 1021.04 1629.63 1022.39C1632.11 1027.9 1632.91 1034.45 1630.34 1039.96C1630.12 1040.32 1629.92 1040.68 1629.74 1041.05C1629.56 1041.42 1629.39 1041.81 1629.25 1042.19C1629.1 1042.58 1628.98 1042.98 1628.87 1043.38C1628.77 1043.78 1628.68 1044.19 1628.62 1044.6C1628.44 1048.18 1632.2 1050.46 1634.96 1052.75C1645.3 1061.36 1644.86 1076.87 1644.95 1090.37C1644.99 1097.22 1645.4 1104.06 1646.17 1110.87C1646.95 1117.68 1648.09 1124.44 1649.6 1131.13C1651.1 1137.82 1652.96 1144.42 1655.18 1150.9C1657.39 1157.39 1659.95 1163.75 1662.85 1169.96C1660.68 1171.06 1658.36 1171.82 1655.96 1172.23C1653.57 1172.64 1651.12 1172.69 1648.71 1172.38C1646.3 1172.06 1643.95 1171.39 1641.74 1170.38C1639.53 1169.36 1637.49 1168.03 1635.68 1166.41C1636.03 1167.94 1636.43 1169.46 1636.87 1170.97C1637.3 1172.48 1637.78 1173.98 1638.3 1175.46C1638.81 1176.95 1639.36 1178.42 1639.96 1179.87C1640.55 1181.33 1641.18 1182.77 1641.84 1184.19C1633.09 1188.43 1622.53 1181.47 1618.13 1172.78C1613.74 1164.1 1613.22 1154 1610.1 1144.78C1606.98 1135.57 1601.49 1127.55 1599.06 1118.26C1598.28 1115.2 1597.8 1111.92 1595.92 1109.37C1595.53 1108.91 1595.11 1108.47 1594.68 1108.04C1594.25 1107.61 1593.81 1107.2 1593.35 1106.81C1592.89 1106.41 1592.41 1106.04 1591.92 1105.68C1591.43 1105.33 1590.92 1104.99 1590.41 1104.67C1588.15 1103.04 1586.03 1101.24 1584.05 1099.29C1582.07 1097.33 1580.25 1095.22 1578.6 1092.98C1576.95 1090.75 1575.47 1088.38 1574.19 1085.92C1572.9 1083.45 1571.81 1080.89 1570.92 1078.25C1560.2 1080.61 1549.26 1082.99 1538.34 1081.99C1527.41 1080.99 1516.25 1076.05 1510.47 1066.71C1507.92 1062.59 1506.54 1057.85 1504.18 1053.61C1501.29 1048.44 1497.03 1044.16 1493.84 1039.22C1486.16 1027.45 1484.74 1012.34 1487.86 998.62C1490.99 984.9 1498.2 972.5 1506.82 961.39C1523.33 939.95 1551.07 932 1577.2 936.19Z" />
				<path id="Tracé_2663" class="shp2" d="M1664.2 1108.55C1664.97 1113.47 1665.92 1118.4 1667.03 1123.28C1667.34 1124.69 1667.67 1126.09 1668.03 1127.49C1668.38 1128.89 1668.76 1130.29 1669.15 1131.67C1669.55 1133.06 1669.97 1134.44 1670.41 1135.82C1670.84 1137.19 1671.3 1138.56 1671.78 1139.92C1672.06 1140.52 1672.31 1141.13 1672.51 1141.75C1672.72 1142.38 1672.88 1143.01 1673.01 1143.66C1673.13 1144.3 1673.22 1144.95 1673.27 1145.61C1673.31 1146.26 1673.32 1146.92 1673.28 1147.58C1673.2 1147.98 1673.09 1148.38 1672.97 1148.77C1672.85 1149.16 1672.72 1149.55 1672.56 1149.93C1672.41 1150.31 1672.24 1150.69 1672.05 1151.05C1671.86 1151.42 1671.66 1151.78 1671.44 1152.13C1665.15 1163.31 1656.64 1174.11 1655.93 1186.93C1655.76 1190.12 1655.93 1193.58 1654.21 1196.22C1649.35 1185.75 1643.98 1175.55 1638.11 1165.62C1631.98 1155.28 1625.15 1144.7 1623.39 1132.74C1623.22 1131.34 1623.09 1129.94 1623.01 1128.53C1622.94 1127.12 1622.91 1125.7 1622.93 1124.29C1622.94 1122.88 1623.01 1121.47 1623.13 1120.06C1623.24 1118.65 1623.41 1117.25 1623.62 1115.86C1624.43 1109.57 1625.84 1103.12 1629.67 1098.09C1633.84 1092.64 1645.18 1084.43 1652.64 1086.13C1661.3 1088.11 1663.1 1101.53 1664.2 1108.55Z" />
				<path id="Tracé_2664" class="shp26" d="M1442.1 1168.82C1433.86 1165.46 1425.45 1161.93 1418.92 1155.87C1417.92 1154.88 1416.96 1153.86 1416.02 1152.82C1415.08 1151.78 1414.16 1150.71 1413.28 1149.62C1412.4 1148.53 1411.55 1147.41 1410.73 1146.27C1409.91 1145.13 1409.13 1143.97 1408.37 1142.79L1388.99 1114.82C1384.4 1108.17 1379.66 1101.19 1378.65 1093.18C1375.84 1090.21 1373.28 1087 1371.02 1083.59C1368.76 1080.19 1366.79 1076.59 1365.15 1072.85C1363.5 1069.11 1362.18 1065.23 1361.2 1061.26C1360.22 1057.29 1359.58 1053.24 1359.3 1049.16C1359.16 1047.53 1358.61 1045.37 1356.97 1045.32C1356.79 1045.34 1356.61 1045.37 1356.44 1045.41C1356.26 1045.46 1356.1 1045.52 1355.93 1045.6C1355.77 1045.68 1355.62 1045.77 1355.47 1045.88C1355.33 1045.98 1355.19 1046.1 1355.07 1046.24C1354.44 1046.82 1353.88 1047.47 1353.4 1048.18C1352.92 1048.89 1352.53 1049.66 1352.23 1050.47C1351.93 1051.27 1351.73 1052.11 1351.63 1052.96C1351.53 1053.81 1351.52 1054.67 1351.62 1055.52C1348.8 1055.39 1345.73 1055.32 1343.42 1056.97C1341.12 1058.63 1340.49 1062.73 1342.98 1064.09C1342.56 1064.21 1342.18 1064.41 1341.84 1064.68C1341.5 1064.94 1341.21 1065.26 1340.98 1065.63C1340.76 1065.99 1340.6 1066.4 1340.52 1066.82C1340.44 1067.25 1340.44 1067.68 1340.51 1068.1C1337.55 1067.52 1334.29 1067.04 1331.67 1068.52C1329.05 1070 1328.05 1074.34 1330.59 1075.96C1329.85 1076.24 1329.17 1076.64 1328.55 1077.13C1327.94 1077.62 1327.4 1078.21 1326.97 1078.86C1326.53 1079.52 1326.19 1080.24 1325.98 1080.99C1325.76 1081.75 1325.66 1082.53 1325.67 1083.32C1325.71 1084.1 1325.82 1084.88 1325.98 1085.65C1326.14 1086.42 1326.37 1087.17 1326.66 1087.9C1326.94 1088.63 1327.28 1089.34 1327.68 1090.01C1328.08 1090.69 1328.53 1091.33 1329.03 1091.93C1336.48 1101.93 1349.61 1105.96 1358.24 1114.96C1358.95 1115.74 1359.64 1116.54 1360.31 1117.36C1360.99 1118.18 1361.64 1119.01 1362.27 1119.86C1362.91 1120.71 1363.52 1121.57 1364.12 1122.44C1364.71 1123.32 1365.29 1124.21 1365.84 1125.11L1390.84 1163.15C1398.79 1175.22 1406.94 1187.57 1418.28 1196.57C1419.01 1197.21 1419.78 1197.81 1420.58 1198.36C1421.38 1198.92 1422.21 1199.42 1423.07 1199.88C1423.93 1200.33 1424.81 1200.74 1425.72 1201.09C1426.63 1201.45 1427.55 1201.75 1428.49 1201.99C1429.44 1202.23 1430.41 1202.35 1431.38 1202.34C1432.35 1202.32 1433.32 1202.19 1434.26 1201.93C1435.19 1201.67 1436.09 1201.29 1436.93 1200.79C1437.77 1200.3 1438.54 1199.7 1439.23 1199.01C1441.73 1196.17 1442.11 1192.12 1442.35 1188.31C1442.77 1181.9 1441.67 1175.28 1442.1 1168.82Z" />
				<path id="Tracé_2665" class="shp25" d="M1525.83 1697.26C1525.58 1697.5 1525.34 1697.76 1525.1 1698.02C1524.86 1698.27 1524.63 1698.54 1524.41 1698.81C1524.19 1699.08 1523.97 1699.36 1523.76 1699.64C1523.55 1699.92 1523.35 1700.21 1523.16 1700.5C1522.74 1701.18 1522.4 1701.91 1522.13 1702.67C1521.87 1703.43 1521.69 1704.21 1521.59 1705.01C1521.5 1705.81 1521.49 1706.61 1521.56 1707.41C1521.64 1708.21 1521.8 1709 1522.04 1709.77C1522.28 1710.53 1522.6 1711.27 1522.99 1711.97C1523.38 1712.67 1523.84 1713.33 1524.36 1713.95C1524.87 1714.56 1525.45 1715.12 1526.08 1715.62C1526.7 1716.13 1527.37 1716.57 1528.09 1716.94C1528.25 1717.01 1528.42 1717.09 1528.58 1717.18C1528.75 1717.26 1528.91 1717.35 1529.07 1717.44C1529.23 1717.53 1529.39 1717.63 1529.54 1717.73C1529.7 1717.83 1529.85 1717.93 1530 1718.04C1530.09 1718.13 1530.18 1718.22 1530.28 1718.3C1530.37 1718.39 1530.47 1718.47 1530.57 1718.56C1530.66 1718.64 1530.76 1718.72 1530.86 1718.8C1530.96 1718.88 1531.07 1718.96 1531.17 1719.04C1531.37 1719.14 1531.58 1719.22 1531.79 1719.29C1532 1719.36 1532.22 1719.42 1532.44 1719.46C1532.66 1719.5 1532.88 1719.53 1533.1 1719.54C1533.32 1719.55 1533.55 1719.54 1533.77 1719.52C1535.44 1719.41 1537.11 1719.26 1538.77 1719.06C1540.44 1718.87 1542.1 1718.62 1543.75 1718.34C1545.4 1718.05 1547.04 1717.72 1548.67 1717.34C1550.3 1716.96 1551.93 1716.54 1553.54 1716.07C1556.5 1715.33 1559.63 1714.49 1561.7 1712.25C1562.02 1711.85 1562.32 1711.43 1562.6 1711C1562.88 1710.57 1563.13 1710.13 1563.37 1709.67C1563.6 1709.22 1563.81 1708.75 1564 1708.27C1564.19 1707.8 1564.35 1707.31 1564.5 1706.82L1566.84 1700.29C1567.22 1699.3 1567.59 1698.31 1567.93 1697.31C1568.27 1696.31 1568.59 1695.3 1568.89 1694.28C1569.19 1693.27 1569.47 1692.25 1569.73 1691.22C1569.99 1690.19 1570.22 1689.16 1570.44 1688.12C1570.65 1687.09 1570.8 1686.04 1570.88 1684.98C1570.96 1683.93 1570.97 1682.87 1570.91 1681.81C1570.86 1680.75 1570.74 1679.7 1570.55 1678.66C1570.36 1677.62 1570.1 1676.59 1569.78 1675.58C1569.64 1675.76 1569.51 1675.95 1569.4 1676.15C1569.29 1676.36 1569.2 1676.57 1569.13 1676.79C1569.05 1677 1569 1677.23 1568.96 1677.46C1568.93 1677.68 1568.92 1677.92 1568.92 1678.15C1568.75 1679.24 1568.51 1680.32 1568.21 1681.39C1567.91 1682.46 1567.55 1683.5 1567.13 1684.53C1566.71 1685.55 1566.22 1686.55 1565.68 1687.52C1565.14 1688.48 1564.54 1689.42 1563.89 1690.31C1563.75 1690.54 1563.61 1690.76 1563.46 1690.97C1563.31 1691.19 1563.15 1691.4 1562.99 1691.61C1562.82 1691.81 1562.65 1692.01 1562.48 1692.21C1562.3 1692.4 1562.12 1692.59 1561.93 1692.78C1561.5 1693.1 1561.05 1693.4 1560.59 1693.67C1560.12 1693.94 1559.64 1694.18 1559.15 1694.39C1558.65 1694.6 1558.14 1694.77 1557.63 1694.91C1557.11 1695.06 1556.58 1695.17 1556.05 1695.24C1555.02 1695.46 1553.99 1695.66 1552.95 1695.84C1551.91 1696.02 1550.87 1696.18 1549.83 1696.31C1548.79 1696.44 1547.74 1696.56 1546.69 1696.64C1545.64 1696.73 1544.59 1696.8 1543.54 1696.84C1543.4 1696.86 1543.25 1696.87 1543.1 1696.87C1542.96 1696.87 1542.81 1696.86 1542.67 1696.85C1542.52 1696.83 1542.38 1696.8 1542.23 1696.77C1542.09 1696.73 1541.95 1696.69 1541.82 1696.63C1541.65 1696.54 1541.49 1696.43 1541.34 1696.31C1541.2 1696.19 1541.06 1696.05 1540.94 1695.91C1540.82 1695.76 1540.71 1695.6 1540.62 1695.43C1540.52 1695.27 1540.45 1695.09 1540.39 1694.91C1540.24 1694.5 1540.12 1694.07 1540.05 1693.64C1539.97 1693.2 1539.94 1692.77 1539.94 1692.33C1539.94 1691.89 1539.97 1691.45 1540.05 1691.01C1540.12 1690.58 1540.24 1690.15 1540.39 1689.74C1541.52 1686.55 1544.64 1684.47 1546.13 1681.44C1547.24 1679.2 1545.71 1676.74 1543.44 1678.63C1542.93 1679.11 1542.42 1679.59 1541.93 1680.09C1541.43 1680.58 1540.94 1681.08 1540.46 1681.59C1539.98 1682.1 1539.51 1682.62 1539.04 1683.14C1538.57 1683.66 1538.11 1684.19 1537.66 1684.73L1525.83 1697.26Z" />
				<path id="Tracé_2666" class="shp26" d="M1547.49 1651.99C1548.16 1662.51 1548.63 1673.89 1542.87 1682.73C1540.79 1685.9 1538.01 1688.57 1535.65 1691.55C1535.31 1691.92 1535.01 1692.32 1534.72 1692.73C1534.44 1693.14 1534.19 1693.58 1533.98 1694.03C1533.76 1694.48 1533.57 1694.94 1533.42 1695.42C1533.27 1695.9 1533.15 1696.38 1533.07 1696.88C1532.74 1700.74 1536.36 1704.04 1540.17 1704.77C1543.97 1705.49 1547.87 1704.29 1551.56 1703.05C1552.43 1702.83 1553.28 1702.57 1554.13 1702.27C1554.97 1701.97 1555.8 1701.63 1556.61 1701.25C1557.42 1700.86 1558.22 1700.44 1558.99 1699.98C1559.76 1699.52 1560.5 1699.03 1561.22 1698.5C1566.24 1694.26 1567.56 1687.2 1568.56 1680.71L1570.91 1665.65C1571.35 1663.76 1571.64 1661.84 1571.77 1659.91C1571.9 1657.98 1571.87 1656.03 1571.69 1654.11C1571.51 1652.18 1571.17 1650.26 1570.68 1648.39C1570.19 1646.51 1569.56 1644.68 1568.77 1642.91L1564.91 1631.61C1564.85 1631.33 1564.76 1631.07 1564.66 1630.81C1564.55 1630.55 1564.43 1630.3 1564.28 1630.06C1564.13 1629.82 1563.97 1629.6 1563.78 1629.38C1563.6 1629.17 1563.4 1628.98 1563.19 1628.8C1562.97 1628.67 1562.73 1628.57 1562.49 1628.48C1562.25 1628.4 1562.01 1628.33 1561.76 1628.29C1561.51 1628.24 1561.26 1628.21 1561 1628.21C1560.75 1628.2 1560.49 1628.21 1560.24 1628.25C1556.55 1628.44 1547.23 1629.78 1545.44 1633.69C1543.92 1637.08 1547.23 1647.94 1547.49 1651.99Z" />
				<path id="Tracé_2667" class="shp27" d="M1547.49 1651.99C1548.16 1662.51 1548.63 1673.89 1542.87 1682.73C1540.79 1685.9 1538.01 1688.57 1535.65 1691.55C1535.31 1691.92 1535.01 1692.32 1534.72 1692.73C1534.44 1693.14 1534.19 1693.58 1533.98 1694.03C1533.76 1694.48 1533.57 1694.94 1533.42 1695.42C1533.27 1695.9 1533.15 1696.38 1533.07 1696.88C1532.74 1700.74 1536.36 1704.04 1540.17 1704.77C1543.97 1705.49 1547.87 1704.29 1551.56 1703.05C1552.43 1702.83 1553.28 1702.57 1554.13 1702.27C1554.97 1701.97 1555.8 1701.63 1556.61 1701.25C1557.42 1700.86 1558.22 1700.44 1558.99 1699.98C1559.76 1699.52 1560.5 1699.03 1561.22 1698.5C1566.24 1694.26 1567.56 1687.2 1568.56 1680.71L1570.91 1665.65C1571.35 1663.76 1571.64 1661.84 1571.77 1659.91C1571.9 1657.98 1571.87 1656.03 1571.69 1654.11C1571.51 1652.18 1571.17 1650.26 1570.68 1648.39C1570.19 1646.51 1569.56 1644.68 1568.77 1642.91L1564.91 1631.61C1564.85 1631.33 1564.76 1631.07 1564.66 1630.81C1564.55 1630.55 1564.43 1630.3 1564.28 1630.06C1564.13 1629.82 1563.97 1629.6 1563.78 1629.38C1563.6 1629.17 1563.4 1628.98 1563.19 1628.8C1562.97 1628.67 1562.73 1628.57 1562.49 1628.48C1562.25 1628.4 1562.01 1628.33 1561.76 1628.29C1561.51 1628.24 1561.26 1628.21 1561 1628.21C1560.75 1628.2 1560.49 1628.21 1560.24 1628.25C1556.55 1628.44 1547.23 1629.78 1545.44 1633.69C1543.92 1637.08 1547.23 1647.94 1547.49 1651.99Z" />
				<path id="Tracé_2668" class="shp25" d="M1464.65 1339.9C1464.65 1339.93 1464.65 1339.95 1464.65 1339.98C1464.65 1340 1464.65 1340.03 1464.65 1340.05C1464.65 1340.07 1464.65 1340.1 1464.65 1340.12C1464.65 1340.15 1464.65 1340.17 1464.65 1340.2C1464.71 1340.57 1464.78 1340.94 1464.87 1341.3C1464.95 1341.67 1465.06 1342.03 1465.18 1342.39C1465.29 1342.74 1465.43 1343.09 1465.58 1343.44C1465.73 1343.78 1465.89 1344.12 1466.07 1344.45C1466.86 1346.18 1467.56 1347.94 1468.19 1349.73C1468.82 1351.52 1469.36 1353.34 1469.81 1355.18C1470.27 1357.02 1470.64 1358.88 1470.92 1360.75C1471.21 1362.63 1471.4 1364.51 1471.51 1366.41C1471.51 1366.87 1471.52 1367.34 1471.55 1367.81C1471.58 1368.28 1471.63 1368.74 1471.69 1369.21C1471.75 1369.67 1471.83 1370.13 1471.93 1370.59C1472.03 1371.05 1472.14 1371.51 1472.27 1371.95C1472.46 1372.38 1472.67 1372.81 1472.88 1373.23C1473.1 1373.65 1473.32 1374.06 1473.56 1374.47C1473.79 1374.87 1474.04 1375.27 1474.3 1375.67C1474.55 1376.06 1474.82 1376.45 1475.1 1376.83C1478.46 1382.3 1479.23 1388.89 1480.35 1395.15C1480.71 1397.19 1481.12 1399.23 1481.57 1401.25C1482.01 1403.28 1482.51 1405.29 1483.04 1407.3C1483.58 1409.3 1484.15 1411.3 1484.77 1413.27C1485.4 1415.25 1486.06 1417.22 1486.76 1419.17C1490.61 1429.82 1495.78 1440.71 1494.02 1451.91C1493.85 1452.57 1493.71 1453.23 1493.59 1453.9C1493.46 1454.56 1493.36 1455.23 1493.27 1455.91C1493.19 1456.58 1493.13 1457.25 1493.09 1457.93C1493.04 1458.6 1493.02 1459.28 1493.02 1459.96C1493.14 1460.71 1493.3 1461.45 1493.49 1462.18C1493.69 1462.91 1493.92 1463.63 1494.18 1464.34C1494.45 1465.05 1494.75 1465.75 1495.08 1466.43C1495.41 1467.11 1495.77 1467.77 1496.17 1468.42C1496.49 1469.06 1496.81 1469.7 1497.11 1470.34C1497.41 1470.99 1497.71 1471.64 1498 1472.29C1498.29 1472.95 1498.56 1473.61 1498.83 1474.27C1499.1 1474.93 1499.36 1475.59 1499.62 1476.26C1500.74 1479.12 1501.74 1482.05 1502.62 1485.01C1503.65 1488.61 1504.34 1492.89 1501.96 1495.78C1501.78 1495.96 1501.6 1496.14 1501.42 1496.33C1501.25 1496.52 1501.08 1496.71 1500.92 1496.91C1500.76 1497.1 1500.6 1497.31 1500.45 1497.51C1500.3 1497.72 1500.15 1497.93 1500.02 1498.14C1499.9 1498.47 1499.82 1498.81 1499.76 1499.15C1499.71 1499.49 1499.68 1499.83 1499.68 1500.18C1499.68 1500.52 1499.71 1500.87 1499.76 1501.21C1499.82 1501.55 1499.9 1501.89 1500.02 1502.21C1501.38 1507.96 1502.84 1513.7 1504.39 1519.44C1505.6 1523.92 1506.87 1528.37 1508.18 1532.82C1517.87 1565.33 1528.86 1597.52 1535.34 1630.83C1536.27 1635.62 1542.42 1639.05 1547.18 1640.1C1548.37 1640.36 1549.59 1640.47 1550.81 1640.44C1552.03 1640.41 1553.24 1640.23 1554.42 1639.92C1555.6 1639.6 1556.74 1639.15 1557.81 1638.57C1558.88 1637.99 1559.88 1637.28 1560.79 1636.47C1561.12 1636.17 1561.43 1635.85 1561.72 1635.54C1566.72 1630.16 1567.46 1621.91 1567.08 1614.46C1565.36 1580.19 1548.13 1548.81 1539.92 1515.5C1539.18 1512.49 1538.51 1509.46 1537.92 1506.42C1537.33 1503.38 1536.81 1500.33 1536.36 1497.26C1535.91 1494.19 1535.54 1491.12 1535.25 1488.03C1534.95 1484.95 1534.73 1481.86 1534.58 1478.76C1532.67 1437.4 1531.89 1393.67 1543.59 1353.91C1546.02 1345.64 1548.9 1336.3 1544.52 1328.89C1541.77 1324.21 1536.65 1321.43 1531.58 1319.43C1526.43 1317.43 1521.09 1315.94 1515.64 1314.99C1510.19 1314.04 1504.66 1313.63 1499.13 1313.78C1493.6 1313.93 1488.1 1314.63 1482.71 1315.87C1477.32 1317.1 1472.07 1318.88 1467.03 1321.16C1467.03 1321.36 1467.03 1321.57 1467.03 1321.78C1467.03 1321.99 1467.04 1322.19 1467.04 1322.4C1467.05 1322.61 1467.06 1322.81 1467.08 1323.02C1467.09 1323.23 1467.11 1323.43 1467.13 1323.64C1467.24 1324.6 1467.3 1325.56 1467.3 1326.53C1467.29 1327.49 1467.24 1328.46 1467.13 1329.42C1467.02 1330.38 1466.85 1331.33 1466.64 1332.27C1466.42 1333.21 1466.15 1334.14 1465.82 1335.05C1465.66 1335.43 1465.5 1335.82 1465.37 1336.22C1465.24 1336.62 1465.12 1337.02 1465.02 1337.42C1464.93 1337.83 1464.85 1338.24 1464.78 1338.66C1464.72 1339.07 1464.68 1339.49 1464.65 1339.9L1464.65 1339.9Z" />
				<path id="Tracé_2669" class="shp25" d="M1606.34 1662.58L1608.52 1670.55C1608.81 1671.74 1609.13 1672.93 1609.47 1674.12C1609.81 1675.3 1610.17 1676.48 1610.56 1677.65C1610.95 1678.81 1611.36 1679.97 1611.8 1681.13C1612.23 1682.28 1612.69 1683.42 1613.18 1684.56C1613.59 1685.32 1613.98 1686.09 1614.36 1686.86C1614.74 1687.64 1615.1 1688.43 1615.45 1689.22C1615.79 1690.02 1616.12 1690.82 1616.43 1691.62C1616.74 1692.43 1617.04 1693.25 1617.31 1694.07C1617.47 1694.74 1617.6 1695.41 1617.7 1696.09C1617.81 1696.76 1617.89 1697.44 1617.95 1698.13C1618.01 1698.81 1618.04 1699.49 1618.06 1700.18C1618.07 1700.86 1618.05 1701.55 1618.02 1702.24C1618.03 1702.89 1618.01 1703.54 1617.97 1704.2C1617.93 1704.85 1617.86 1705.5 1617.77 1706.15C1617.68 1706.8 1617.56 1707.44 1617.41 1708.08C1617.27 1708.72 1617.09 1709.35 1616.9 1709.97C1616.38 1711.2 1615.74 1712.38 1614.99 1713.47C1614.23 1714.57 1613.36 1715.59 1612.39 1716.5C1611.42 1717.42 1610.36 1718.23 1609.23 1718.93C1608.09 1719.63 1606.88 1720.21 1605.63 1720.66C1604.37 1721.1 1603.09 1721.49 1601.8 1721.84C1600.51 1722.19 1599.21 1722.48 1597.9 1722.73C1596.59 1722.97 1595.27 1723.17 1593.94 1723.32C1592.61 1723.46 1591.28 1723.56 1589.95 1723.6C1589.61 1723.65 1589.26 1723.68 1588.92 1723.7C1588.57 1723.72 1588.23 1723.73 1587.88 1723.72C1587.54 1723.71 1587.19 1723.69 1586.85 1723.65C1586.51 1723.62 1586.17 1723.57 1585.83 1723.5C1585.47 1723.4 1585.11 1723.28 1584.76 1723.14C1584.41 1723 1584.07 1722.84 1583.73 1722.66C1583.4 1722.49 1583.07 1722.3 1582.76 1722.09C1582.44 1721.88 1582.14 1721.66 1581.85 1721.42C1574.58 1716.09 1570.84 1706.27 1570.18 1697.29C1570.23 1696.77 1570.29 1696.25 1570.36 1695.73C1570.44 1695.21 1570.53 1694.69 1570.63 1694.18C1570.73 1693.66 1570.85 1693.15 1570.98 1692.64C1571.11 1692.13 1571.25 1691.63 1571.4 1691.12C1571.97 1690.37 1577.47 1693.47 1575.11 1696.07C1571.66 1699.89 1581.81 1697.91 1586.98 1697.59C1587.55 1697.54 1588.11 1697.48 1588.68 1697.41C1589.24 1697.34 1589.81 1697.26 1590.37 1697.17C1590.93 1697.07 1591.49 1696.97 1592.05 1696.86C1592.61 1696.74 1593.16 1696.62 1593.72 1696.49L1602.09 1694.76C1604.83 1694.18 1607.98 1693.23 1608.98 1690.61C1609.98 1687.99 1607.85 1684.85 1606.19 1682.3C1601.82 1675.53 1600.68 1667.24 1599.66 1659.25C1599.47 1657.68 1597.51 1647.5 1601.56 1650.63C1601.91 1651 1602.23 1651.39 1602.52 1651.8C1602.82 1652.21 1603.08 1652.64 1603.32 1653.09C1603.56 1653.54 1603.76 1654 1603.94 1654.47C1604.11 1654.94 1604.26 1655.43 1604.37 1655.92C1605.11 1658.07 1605.73 1660.33 1606.34 1662.58Z" />
				<path id="Tracé_2670" class="shp27" d="M1502.05 1495.8C1504.43 1492.9 1503.77 1488.63 1502.69 1485.03C1502.31 1483.68 1501.88 1482.36 1501.43 1481.03L1534.31 1469.9C1534.43 1472.86 1534.57 1475.79 1534.71 1478.72C1534.85 1481.82 1535.07 1484.91 1535.37 1488C1535.66 1491.08 1536.03 1494.16 1536.48 1497.23C1536.92 1500.3 1537.44 1503.35 1538.03 1506.39C1538.63 1509.44 1539.29 1512.47 1540.04 1515.47C1548.26 1548.77 1565.51 1580.15 1567.19 1614.4C1567.59 1622.3 1566.75 1631.12 1560.9 1636.43C1560 1637.24 1559 1637.95 1557.93 1638.53C1556.86 1639.11 1555.72 1639.57 1554.54 1639.88C1553.36 1640.2 1552.15 1640.38 1550.93 1640.41C1549.71 1640.44 1548.5 1640.33 1547.3 1640.08C1542.53 1639.03 1536.39 1635.58 1535.45 1630.79C1528.93 1597.48 1517.99 1565.31 1508.29 1532.76C1505.27 1522.66 1502.55 1512.48 1500.12 1502.22C1500.01 1501.9 1499.93 1501.56 1499.87 1501.22C1499.81 1500.89 1499.79 1500.54 1499.79 1500.2C1499.79 1499.85 1499.81 1499.51 1499.87 1499.17C1499.93 1498.83 1500.01 1498.5 1500.12 1498.17C1500.26 1497.96 1500.4 1497.74 1500.55 1497.53C1500.7 1497.33 1500.85 1497.12 1501.01 1496.92C1501.17 1496.72 1501.34 1496.53 1501.51 1496.34C1501.69 1496.15 1501.87 1495.97 1502.05 1495.8L1502.05 1495.8Z" />
				<path id="Tracé_2671" class="shp26" d="M1592.9 1626.47C1595.5 1630.95 1599.46 1634.91 1600.07 1640.05C1600.43 1643.13 1599.48 1646.23 1599.5 1649.35C1599.53 1649.99 1599.58 1650.64 1599.65 1651.28C1599.73 1651.92 1599.82 1652.56 1599.93 1653.19C1600.05 1653.83 1600.18 1654.46 1600.34 1655.09C1600.49 1655.71 1600.66 1656.33 1600.86 1656.95C1604.06 1668.52 1607.75 1679.93 1611.92 1691.17C1612.09 1691.53 1612.24 1691.9 1612.36 1692.28C1612.49 1692.66 1612.58 1693.05 1612.66 1693.44C1612.73 1693.83 1612.78 1694.23 1612.81 1694.63C1612.83 1695.03 1612.83 1695.43 1612.8 1695.82C1612.39 1698.46 1609.82 1700.2 1607.37 1701.25C1599.53 1704.6 1590.71 1704.37 1582.2 1704.03C1581.58 1704.05 1580.96 1704.03 1580.35 1703.97C1579.74 1703.91 1579.13 1703.81 1578.53 1703.66C1577.94 1703.52 1577.35 1703.33 1576.78 1703.1C1576.2 1702.88 1575.65 1702.61 1575.11 1702.3C1572.06 1700.22 1571.31 1696.1 1571.11 1692.41C1570.53 1681.73 1572.34 1670.99 1571.11 1660.38C1570.68 1656.5 1569.87 1652.69 1569.27 1648.85C1568.43 1643.51 1567.99 1637.89 1569.75 1632.77C1570.12 1631.86 1570.51 1630.96 1570.95 1630.07C1571.39 1629.19 1571.86 1628.32 1572.36 1627.47C1572.87 1626.63 1573.4 1625.8 1573.98 1625C1574.55 1624.19 1575.15 1623.41 1575.78 1622.66C1576.34 1621.84 1576.94 1621.05 1577.57 1620.29C1578.2 1619.53 1578.87 1618.8 1579.57 1618.1C1580.27 1617.4 1581 1616.73 1581.77 1616.1C1582.53 1615.47 1583.32 1614.88 1584.14 1614.32C1585.14 1613.73 1587.98 1611.91 1589 1613.04C1589.52 1613.63 1589.29 1615.2 1589.36 1615.92C1589.39 1616.2 1589.43 1616.48 1589.47 1616.75C1589.51 1617.03 1589.56 1617.31 1589.61 1617.58C1589.66 1617.86 1589.71 1618.14 1589.77 1618.41C1589.82 1618.68 1589.88 1618.96 1589.95 1619.23C1590.1 1619.86 1590.28 1620.49 1590.49 1621.11C1590.69 1621.74 1590.91 1622.35 1591.16 1622.95C1591.41 1623.56 1591.67 1624.16 1591.96 1624.74C1592.25 1625.33 1592.56 1625.9 1592.89 1626.47L1592.9 1626.47Z" />
				<path id="Tracé_2672" class="shp27" d="M1529.72 1353.24C1531.26 1355.32 1530.95 1358.22 1530.32 1360.74C1529.24 1365.29 1527.41 1369.65 1525.93 1374.07C1525.32 1376.06 1524.75 1378.06 1524.21 1380.07C1523.67 1382.07 1523.17 1384.09 1522.7 1386.11C1522.23 1388.13 1521.79 1390.17 1521.39 1392.2C1520.98 1394.24 1520.61 1396.29 1520.28 1398.34C1518.9 1405.75 1515.97 1414 1517.16 1421.46C1514.92 1425.73 1512.87 1430.09 1511.01 1434.54C1509.15 1438.98 1507.48 1443.51 1506.02 1448.1C1504.56 1452.69 1503.3 1457.34 1502.24 1462.04C1501.19 1466.75 1500.34 1471.49 1499.7 1476.27C1499.03 1481.18 1509.94 1487.52 1509.73 1492.47C1509.32 1502.32 1501.46 1503.12 1507.25 1510.97C1507.54 1511.38 1505.08 1520.18 1505.41 1520.56C1507.77 1523.4 1510.77 1525.73 1513.3 1528.33C1514.12 1529.25 1514.9 1530.2 1515.66 1531.17C1516.42 1532.15 1517.14 1533.14 1517.84 1534.16C1518.53 1535.18 1519.2 1536.22 1519.83 1537.28C1520.46 1538.34 1521.06 1539.41 1521.62 1540.51C1536.62 1567.6 1558.29 1598.31 1551.61 1628.55C1551.54 1629.09 1551.55 1629.64 1551.65 1630.17C1551.75 1630.71 1551.93 1631.23 1552.18 1631.71C1552.44 1632.19 1552.76 1632.64 1553.15 1633.02C1553.54 1633.4 1553.98 1633.73 1554.47 1633.98C1554.96 1634.21 1555.46 1634.42 1555.98 1634.6C1556.5 1634.79 1557.02 1634.94 1557.56 1635.06C1558.09 1635.18 1558.63 1635.28 1559.17 1635.34C1559.71 1635.4 1560.26 1635.44 1560.81 1635.44L1561.84 1635.44C1566.84 1630.07 1567.58 1621.81 1567.2 1614.37C1565.48 1580.09 1548.24 1548.71 1540.04 1515.4C1539.3 1512.4 1538.63 1509.37 1538.04 1506.33C1537.45 1503.29 1536.93 1500.23 1536.48 1497.16C1536.03 1494.1 1535.66 1491.02 1535.37 1487.94C1535.07 1484.85 1534.85 1481.76 1534.7 1478.67C1532.79 1437.31 1532.01 1393.58 1543.71 1353.82C1546.14 1345.55 1549.02 1336.21 1544.64 1328.8C1541.89 1324.11 1536.77 1321.34 1531.7 1319.34C1526.55 1317.33 1521.21 1315.84 1515.76 1314.89C1510.31 1313.94 1504.78 1313.54 1499.25 1313.69C1493.72 1313.84 1488.22 1314.53 1482.83 1315.77C1477.44 1317.01 1472.19 1318.78 1467.15 1321.06C1467.15 1321.27 1467.15 1321.48 1467.15 1321.68C1467.15 1321.89 1467.15 1322.1 1467.16 1322.31C1467.17 1322.51 1467.18 1322.72 1467.2 1322.93C1467.21 1323.13 1467.23 1323.34 1467.25 1323.54C1467.36 1324.5 1467.41 1325.47 1467.41 1326.43C1467.41 1327.4 1467.36 1328.36 1467.25 1329.32C1467.14 1330.28 1466.97 1331.23 1466.75 1332.17C1466.54 1333.12 1466.26 1334.04 1465.94 1334.95C1465.76 1335.34 1465.6 1335.74 1465.45 1336.14C1465.31 1336.55 1465.18 1336.96 1465.07 1337.38C1464.97 1337.79 1464.88 1338.21 1464.8 1338.64C1464.73 1339.06 1464.68 1339.49 1464.65 1339.91C1464.62 1340.34 1464.06 1333.25 1464.08 1333.35C1477.43 1335.26 1491.53 1344 1505.01 1345.98C1506.75 1346.17 1508.49 1346.4 1510.22 1346.68C1511.95 1346.97 1513.68 1347.3 1515.39 1347.67C1517.11 1348.05 1518.81 1348.47 1520.5 1348.94C1522.19 1349.42 1523.87 1349.93 1525.53 1350.5C1525.93 1350.62 1526.33 1350.78 1526.71 1350.96C1527.09 1351.14 1527.46 1351.35 1527.81 1351.58C1528.17 1351.81 1528.5 1352.06 1528.82 1352.34C1529.14 1352.62 1529.44 1352.92 1529.72 1353.24L1529.72 1353.24Z" />
				<path id="Tracé_2673" class="shp25" d="M1622.76 1279.86C1624.56 1285.61 1626.15 1291.41 1627.53 1297.26C1627.68 1297.77 1627.81 1298.28 1627.91 1298.8C1628 1299.32 1628.07 1299.84 1628.11 1300.37C1628.15 1300.89 1628.16 1301.42 1628.15 1301.94C1628.13 1302.47 1628.09 1303 1628.01 1303.52C1627.58 1305.48 1626.29 1307.24 1626.15 1309.24C1625.84 1312.34 1628 1315.08 1629.18 1317.96C1632.22 1325.28 1628.98 1333.55 1625.74 1340.81L1616.23 1362.35L1608.4 1380.03C1606.08 1385.28 1603.78 1390.55 1601.51 1395.83C1598.97 1401.86 1596.54 1407.94 1594.24 1414.06C1591.93 1420.19 1589.74 1426.36 1587.67 1432.56C1585.6 1438.77 1583.64 1445.02 1581.81 1451.3C1579.98 1457.59 1578.27 1463.9 1576.68 1470.25C1576.63 1470.54 1576.56 1470.82 1576.48 1471.1C1576.4 1471.38 1576.3 1471.66 1576.2 1471.93C1576.09 1472.2 1575.97 1472.47 1575.84 1472.73C1575.71 1472.99 1575.56 1473.25 1575.4 1473.49C1574.08 1475.22 1571.68 1475.77 1569.75 1476.84C1563.89 1480.04 1563.22 1489.65 1568.58 1493.65C1567.48 1506.59 1577.2 1519.09 1582.18 1531.08C1593.69 1558.65 1591.61 1589.67 1595.55 1619.31L1591.09 1616.69C1586.8 1618.65 1586.95 1624.74 1584.64 1628.86C1581.2 1635.04 1572.72 1635.9 1565.69 1635.44C1565.14 1635.44 1564.6 1635.4 1564.06 1635.34C1563.51 1635.28 1562.98 1635.18 1562.45 1635.06C1561.91 1634.94 1561.39 1634.78 1560.87 1634.6C1560.36 1634.42 1559.86 1634.21 1559.37 1633.97C1558.88 1633.72 1558.43 1633.4 1558.05 1633.02C1557.66 1632.63 1557.33 1632.19 1557.08 1631.71C1556.82 1631.23 1556.64 1630.71 1556.55 1630.17C1556.45 1629.64 1556.44 1629.09 1556.5 1628.54C1563.17 1598.3 1541.51 1567.6 1526.5 1540.51C1525.94 1539.41 1525.34 1538.33 1524.71 1537.27C1524.09 1536.22 1523.42 1535.18 1522.73 1534.16C1522.03 1533.14 1521.31 1532.14 1520.55 1531.17C1519.8 1530.2 1519.01 1529.25 1518.2 1528.32C1515.65 1525.64 1512.67 1523.38 1510.29 1520.55C1503.67 1512.61 1502.83 1501.41 1503.28 1491.07C1503.54 1485.01 1504.13 1478.98 1505.06 1472.99C1505.98 1467 1507.24 1461.06 1508.82 1455.21C1510.4 1449.36 1512.3 1443.6 1514.51 1437.96C1516.72 1432.32 1519.24 1426.8 1522.06 1421.43C1520.85 1413.99 1523.78 1405.73 1525.16 1398.33C1525.49 1396.28 1525.87 1394.23 1526.27 1392.19C1526.68 1390.16 1527.12 1388.13 1527.59 1386.11C1528.07 1384.08 1528.58 1382.07 1529.12 1380.07C1529.67 1378.06 1530.25 1376.07 1530.86 1374.08C1532.34 1369.62 1534.15 1365.27 1535.25 1360.73C1535.85 1358.21 1536.18 1355.31 1534.65 1353.23C1534.37 1352.91 1534.07 1352.61 1533.75 1352.33C1533.42 1352.05 1533.08 1351.79 1532.72 1351.56C1532.37 1351.33 1531.99 1351.12 1531.61 1350.94C1531.22 1350.76 1530.82 1350.61 1530.41 1350.49C1528.75 1349.92 1527.07 1349.41 1525.38 1348.93C1523.69 1348.46 1521.99 1348.04 1520.28 1347.66C1518.56 1347.29 1516.84 1346.96 1515.11 1346.67C1513.38 1346.39 1511.64 1346.16 1509.89 1345.97L1463.66 1339.34C1462.18 1329.84 1460.66 1319.26 1461.69 1309.71C1462.25 1305.32 1463.44 1301.02 1465.23 1296.96C1467.03 1292.91 1469.4 1289.14 1472.29 1285.77C1475.17 1282.4 1478.53 1279.47 1482.26 1277.08C1485.99 1274.68 1490.05 1272.84 1494.31 1271.61C1496.33 1271.08 1498.69 1270.74 1500.35 1272.01C1510.49 1270.02 1520.76 1268.69 1531.07 1268.02C1541.39 1267.35 1551.74 1267.34 1562.06 1268C1572.38 1268.66 1582.64 1269.99 1592.79 1271.97C1602.94 1273.95 1612.95 1276.59 1622.76 1279.86L1622.76 1279.86Z" />
				<path id="Tracé_2674" class="shp26" d="M1580.83 1030.16C1580.66 1031.28 1580.58 1032.41 1580.58 1033.54C1580.58 1034.67 1580.67 1035.81 1580.84 1036.93C1581.01 1038.05 1581.27 1039.15 1581.6 1040.23C1581.94 1041.32 1582.35 1042.37 1582.85 1043.39C1583.18 1043.95 1583.54 1044.49 1583.93 1045.02C1584.32 1045.54 1584.73 1046.05 1585.16 1046.54C1585.59 1047.03 1586.05 1047.49 1586.53 1047.94C1587 1048.38 1587.5 1048.8 1588.02 1049.2C1589.13 1050.09 1590.29 1050.93 1591.5 1051.7C1592.7 1052.47 1593.94 1053.17 1595.22 1053.81C1596.5 1054.44 1597.82 1055.01 1599.16 1055.5C1600.5 1056 1601.86 1056.42 1603.25 1056.76C1606.53 1057.59 1610.14 1058.14 1612.37 1060.74C1615.61 1064.65 1613.43 1070.58 1610.64 1074.86C1605.85 1082.3 1599.2 1089.04 1590.67 1091.36C1583.78 1093.22 1576.59 1092.09 1569.63 1093.29C1564.58 1094.17 1559.83 1096.26 1554.85 1097.45C1551.32 1098.25 1547.7 1098.62 1544.08 1098.53C1540.46 1098.45 1536.87 1097.91 1533.38 1096.94C1529.89 1095.97 1526.54 1094.57 1523.4 1092.77C1520.25 1090.97 1517.35 1088.78 1514.75 1086.26C1522.16 1080.58 1529.85 1074.53 1533.7 1066.02C1534.37 1064.51 1534.92 1062.94 1535.32 1061.34C1535.72 1059.74 1535.99 1058.11 1536.11 1056.46C1536.24 1054.81 1536.22 1053.16 1536.05 1051.51C1535.89 1049.87 1535.59 1048.24 1535.15 1046.65C1533.43 1040.34 1529.38 1034.21 1530.62 1027.69C1531.86 1021.18 1538.2 1016.82 1544.4 1014.65C1545.83 1014.22 1547.26 1013.82 1548.7 1013.46C1550.14 1013.1 1551.59 1012.77 1553.05 1012.48C1554.51 1012.19 1555.98 1011.94 1557.45 1011.72C1558.92 1011.51 1560.4 1011.33 1561.88 1011.18C1565.13 1010.74 1585.81 1006.17 1587.1 1008.43C1587.83 1009.7 1583.54 1017.25 1583 1018.92C1582.69 1019.83 1582.41 1020.74 1582.16 1021.66C1581.91 1022.59 1581.69 1023.52 1581.51 1024.46C1581.33 1025.4 1581.18 1026.35 1581.07 1027.3C1580.96 1028.25 1580.88 1029.2 1580.83 1030.16L1580.83 1030.16Z" />
				<path id="Ellipse_404" class="shp26" d="M1554.76 1045.25C1531.57 1045.25 1512.82 1026.5 1512.82 1003.31C1512.82 980.12 1531.57 961.37 1554.76 961.37C1577.95 961.37 1596.7 980.12 1596.7 1003.31C1596.7 1026.5 1577.95 1045.25 1554.76 1045.25Z" />
				<path id="Tracé_2675" class="shp2" d="M1576.92 1072.63L1548.47 1077.42C1546.72 1077.78 1544.97 1078.09 1543.21 1078.36C1541.44 1078.63 1539.67 1078.85 1537.9 1079.03C1536.13 1079.21 1534.35 1079.34 1532.57 1079.43C1530.79 1079.52 1529.01 1079.56 1527.22 1079.56C1526.25 1079.46 1525.28 1079.39 1524.3 1079.34C1523.32 1079.29 1522.34 1079.27 1521.36 1079.27C1520.39 1079.27 1519.41 1079.29 1518.43 1079.34C1517.45 1079.39 1516.48 1079.46 1515.51 1079.56C1512.82 1080.01 1510.25 1081.03 1507.56 1081.37C1504.24 1081.78 1500.86 1081.15 1497.53 1081.58C1491.36 1082.37 1486.28 1086.64 1481.59 1090.73C1476.09 1095.52 1470.19 1101.07 1469.76 1108.39C1469.74 1108.6 1469.73 1108.8 1469.73 1109.01C1469.74 1109.22 1469.76 1109.43 1469.79 1109.63C1469.81 1109.84 1469.86 1110.04 1469.91 1110.24C1469.96 1110.45 1470.03 1110.64 1470.1 1110.84C1470.24 1111.06 1470.38 1111.27 1470.54 1111.47C1470.7 1111.67 1470.86 1111.87 1471.04 1112.05C1471.22 1112.24 1471.41 1112.42 1471.61 1112.58C1471.8 1112.75 1472.01 1112.9 1472.22 1113.04C1477.39 1117.33 1480.37 1123.73 1484.09 1129.38C1485.05 1130.83 1486.07 1132.25 1487.14 1133.62C1488.21 1134.99 1489.34 1136.31 1490.53 1137.59C1491.71 1138.87 1492.94 1140.1 1494.23 1141.27C1495.51 1142.44 1496.85 1143.57 1498.22 1144.63C1499.46 1143.84 1501.82 1145.92 1501.29 1147.3C1500.76 1148.68 1499.39 1149.63 1498.95 1151.02C1497.93 1154.24 1501.91 1156.62 1503.56 1159.64C1505.22 1162.65 1504.38 1166.32 1504.55 1169.75C1504.75 1173.53 1506.27 1177.13 1506.73 1180.87C1507.89 1189.61 1503.56 1198.81 1506.61 1207.06C1502.88 1206.6 1499.5 1209.82 1498.45 1213.42C1497.39 1217.02 1498.07 1220.9 1498.77 1224.59C1497.58 1225.3 1496.49 1226.18 1495.53 1227.19C1494.57 1228.2 1493.75 1229.33 1493.1 1230.56C1492.44 1231.79 1491.96 1233.11 1491.66 1234.47C1491.36 1235.83 1491.25 1237.22 1491.33 1238.61C1491.48 1238.94 1491.55 1239.3 1491.54 1239.66C1491.53 1240.02 1491.43 1240.38 1491.27 1240.7C1491.1 1241.02 1490.87 1241.3 1490.58 1241.51C1490.29 1241.73 1489.96 1241.88 1489.61 1241.95C1488.32 1242.49 1487.11 1243.22 1486.03 1244.11C1484.96 1245 1484.02 1246.04 1483.24 1247.2C1482.47 1248.37 1481.87 1249.64 1481.47 1250.98C1481.07 1252.32 1480.86 1253.71 1480.87 1255.1C1480.9 1255.34 1480.91 1255.57 1480.92 1255.81C1480.92 1256.04 1480.91 1256.28 1480.89 1256.51C1480.87 1256.75 1480.83 1256.98 1480.79 1257.21C1480.74 1257.44 1480.68 1257.67 1480.61 1257.89C1480.49 1258.11 1480.35 1258.32 1480.2 1258.51C1480.05 1258.71 1479.89 1258.9 1479.71 1259.08C1479.54 1259.26 1479.36 1259.42 1479.17 1259.58C1478.97 1259.74 1478.77 1259.88 1478.56 1260.01C1477.61 1260.78 1476.74 1261.65 1475.99 1262.61C1475.23 1263.57 1474.58 1264.61 1474.05 1265.71C1473.53 1266.81 1473.12 1267.97 1472.86 1269.17C1472.59 1270.36 1472.46 1271.58 1472.46 1272.8C1472.46 1276.13 1473.84 1279.69 1476.78 1281.19C1482.82 1284.26 1489.28 1285.45 1495.89 1286.88C1497.42 1287.24 1498.95 1287.58 1500.48 1287.89C1502.01 1288.21 1503.55 1288.51 1505.09 1288.78C1506.64 1289.06 1508.18 1289.31 1509.73 1289.54C1511.28 1289.77 1512.83 1289.98 1514.38 1290.17C1515.82 1290.29 1517.25 1290.39 1518.69 1290.47C1520.12 1290.55 1521.56 1290.61 1522.99 1290.65C1524.43 1290.7 1525.87 1290.72 1527.31 1290.73C1528.74 1290.74 1530.18 1290.73 1531.62 1290.7L1569.66 1290.55C1580.36 1290.55 1591.06 1290.55 1601.73 1289.74C1611.69 1289.07 1621.88 1287.83 1631.53 1290.44C1632.73 1288.39 1630.8 1286.03 1629.61 1283.98C1629.28 1283.29 1628.97 1282.57 1628.71 1281.84C1628.45 1281.11 1628.23 1280.37 1628.04 1279.62C1627.86 1278.87 1627.72 1278.1 1627.62 1277.34C1627.52 1276.57 1627.46 1275.8 1627.44 1275.02L1625.03 1249.67C1624.92 1248.8 1624.83 1247.93 1624.76 1247.05C1624.7 1246.18 1624.66 1245.3 1624.64 1244.42C1624.62 1243.55 1624.63 1242.67 1624.67 1241.79C1624.7 1240.91 1624.76 1240.04 1624.84 1239.16C1625.36 1235.42 1626.77 1231.89 1627.5 1228.19C1628.88 1221.09 1627.62 1213.75 1627.94 1206.51C1628.07 1204.91 1628.23 1203.31 1628.43 1201.71C1628.63 1200.12 1628.87 1198.53 1629.15 1196.95C1629.42 1195.37 1629.74 1193.79 1630.09 1192.22C1630.45 1190.66 1630.84 1189.1 1631.27 1187.55L1638.82 1156.54C1640.02 1151.56 1640.66 1145.77 1642.52 1141.03C1648.32 1126.09 1654.4 1111.32 1660.77 1096.71C1660.88 1096.39 1660.96 1096.06 1661.01 1095.72C1661.05 1095.38 1661.06 1095.04 1661.03 1094.7C1661 1094.37 1660.93 1094.03 1660.83 1093.71C1660.73 1093.38 1660.59 1093.07 1660.42 1092.78L1654.13 1081.51C1653.71 1080.71 1653.28 1079.91 1652.83 1079.13C1652.38 1078.35 1651.91 1077.57 1651.43 1076.81C1650.95 1076.04 1650.46 1075.28 1649.95 1074.54C1649.44 1073.79 1648.92 1073.05 1648.38 1072.33C1647.07 1070.66 1645.61 1069.12 1644.02 1067.71C1642.44 1066.3 1640.73 1065.04 1638.93 1063.93C1637.12 1062.82 1635.22 1061.87 1633.24 1061.09C1631.27 1060.32 1629.23 1059.72 1627.15 1059.3C1625.07 1058.89 1622.96 1058.66 1620.84 1058.61C1618.71 1058.56 1616.59 1058.69 1614.49 1059.01C1612.39 1059.32 1610.33 1059.8 1608.31 1060.47C1606.29 1061.13 1604.34 1061.96 1602.46 1062.95C1599.53 1064.52 1596.81 1066.4 1593.84 1067.95C1588.76 1070.36 1582.56 1073.01 1576.92 1072.63Z" />
				<path id="Tracé_2676" class="shp2" d="M1475.98 1100.26L1466.07 1113.47C1465.84 1113.75 1465.62 1114.04 1465.41 1114.33C1465.2 1114.63 1465 1114.93 1464.81 1115.23C1464.62 1115.54 1464.43 1115.85 1464.26 1116.16C1464.08 1116.48 1463.92 1116.8 1463.76 1117.13C1462.28 1120.57 1463.09 1124.64 1462.3 1128.35C1462.14 1128.94 1461.97 1129.52 1461.77 1130.1C1461.57 1130.68 1461.35 1131.25 1461.1 1131.81C1460.86 1132.37 1460.59 1132.92 1460.31 1133.46C1460.02 1134 1459.71 1134.53 1459.38 1135.05C1458.45 1136.68 1457.49 1138.3 1456.5 1139.9C1455.51 1141.5 1454.49 1143.08 1453.44 1144.65C1452.39 1146.21 1451.3 1147.75 1450.2 1149.27C1449.09 1150.8 1447.95 1152.3 1446.78 1153.78C1446.25 1154.53 1445.68 1155.25 1445.08 1155.95C1444.48 1156.66 1443.85 1157.33 1443.2 1157.98C1442.54 1158.63 1441.85 1159.25 1441.14 1159.84C1440.44 1160.43 1439.7 1160.99 1438.94 1161.51C1438.19 1162.04 1437.37 1162.48 1436.52 1162.83C1435.67 1163.18 1434.78 1163.44 1433.88 1163.6C1432.97 1163.76 1432.05 1163.82 1431.13 1163.79C1430.2 1163.75 1429.29 1163.62 1428.4 1163.39C1428.77 1163.54 1429.12 1163.71 1429.46 1163.92C1429.8 1164.13 1430.12 1164.37 1430.41 1164.64C1430.71 1164.91 1430.97 1165.2 1431.21 1165.52C1431.45 1165.83 1431.67 1166.17 1431.84 1166.53C1435.62 1174.01 1435.89 1182.86 1434.29 1191.07C1434.18 1191.77 1434.04 1192.46 1433.86 1193.15C1433.69 1193.84 1433.49 1194.53 1433.26 1195.2C1433.03 1195.87 1432.77 1196.53 1432.48 1197.18C1432.19 1197.83 1431.88 1198.47 1431.53 1199.1C1431.19 1199.72 1430.8 1200.31 1430.35 1200.86C1429.91 1201.42 1429.41 1201.93 1428.87 1202.4C1428.34 1202.86 1427.76 1203.28 1427.15 1203.64C1426.54 1204 1425.89 1204.31 1425.23 1204.56C1425.4 1205.81 1425.82 1207.01 1426.47 1208.09C1427.12 1209.17 1427.98 1210.11 1429.01 1210.84C1430.03 1211.58 1431.19 1212.1 1432.43 1212.37C1433.66 1212.64 1434.93 1212.65 1436.17 1212.42C1436.66 1212.27 1437.14 1212.1 1437.61 1211.92C1438.08 1211.73 1438.54 1211.52 1439 1211.3C1439.45 1211.07 1439.9 1210.82 1440.33 1210.56C1440.77 1210.29 1441.19 1210.01 1441.6 1209.71L1457.52 1199.37C1458.18 1198.97 1458.84 1198.56 1459.48 1198.13C1460.12 1197.7 1460.75 1197.25 1461.37 1196.78C1461.99 1196.32 1462.6 1195.84 1463.19 1195.34C1463.78 1194.84 1464.36 1194.33 1464.93 1193.81C1467.91 1190.84 1469.98 1187.09 1472.87 1184.04C1477.8 1178.87 1485.04 1175.7 1488.52 1169.42C1490.71 1165.49 1491.09 1160.81 1492.43 1156.57C1493.31 1153.76 1494.6 1151.11 1495.45 1148.28C1498.07 1139.56 1496.17 1130 1492.19 1121.81C1488.21 1113.63 1481.87 1107.22 1475.98 1100.26Z" />
				<path id="Tracé_2677" class="shp25" d="M1513.32 979.39C1514.29 977.89 1515.32 976.44 1516.43 975.04C1517.54 973.64 1518.71 972.29 1519.95 971C1521.19 969.72 1522.49 968.49 1523.84 967.33C1525.2 966.16 1526.61 965.07 1528.07 964.04C1535.91 958.2 1544.92 953.34 1554.69 952.79C1555.71 952.74 1556.73 952.74 1557.75 952.79C1558.76 952.85 1559.78 952.96 1560.78 953.12C1561.79 953.29 1562.78 953.5 1563.77 953.77C1564.75 954.04 1565.72 954.36 1566.67 954.73C1566.86 942.9 1569.79 935 1577.2 936.19C1590.98 938.41 1606.32 943.72 1611.66 956.65C1615.64 966.42 1612.56 977.41 1611.54 987.9C1611.44 988.6 1611.38 989.29 1611.34 989.99C1611.3 990.68 1611.3 991.38 1611.32 992.08C1611.35 992.78 1611.4 993.47 1611.49 994.16C1611.57 994.86 1611.69 995.55 1611.83 996.23C1612.97 1000.66 1616.11 1004.24 1619.14 1007.67C1620.19 1008.76 1621.2 1009.88 1622.17 1011.04C1623.13 1012.21 1624.06 1013.4 1624.94 1014.64C1625.81 1015.87 1626.65 1017.13 1627.43 1018.42C1628.21 1019.72 1628.95 1021.04 1629.63 1022.39C1632.11 1027.9 1632.91 1034.45 1630.34 1039.96C1630.12 1040.32 1629.92 1040.68 1629.74 1041.05C1629.56 1041.43 1629.39 1041.81 1629.25 1042.2C1629.1 1042.58 1628.98 1042.98 1628.87 1043.38C1628.77 1043.78 1628.68 1044.19 1628.62 1044.6C1628.44 1048.18 1632.2 1050.46 1634.96 1052.75C1645.3 1061.37 1644.86 1076.87 1644.95 1090.37C1644.99 1097.22 1645.4 1104.06 1646.17 1110.87C1646.95 1117.68 1648.09 1124.44 1649.6 1131.13C1651.1 1137.82 1652.96 1144.42 1655.18 1150.9C1657.39 1157.39 1659.95 1163.75 1662.85 1169.96C1660.68 1171.06 1658.36 1171.83 1655.96 1172.24C1653.57 1172.65 1651.12 1172.69 1648.71 1172.38C1646.3 1172.06 1643.95 1171.39 1641.74 1170.38C1639.53 1169.37 1637.49 1168.03 1635.67 1166.41C1636.03 1167.94 1636.43 1169.46 1636.87 1170.97C1637.3 1172.48 1637.78 1173.98 1638.3 1175.46C1638.81 1176.95 1639.36 1178.42 1639.96 1179.87C1640.55 1181.33 1641.18 1182.77 1641.84 1184.19C1633.09 1188.43 1622.53 1181.47 1618.13 1172.78C1613.74 1164.1 1613.22 1154 1610.1 1144.79C1606.98 1135.57 1601.49 1127.55 1599.06 1118.27C1598.28 1115.2 1597.8 1111.92 1595.92 1109.37C1595.53 1108.91 1595.11 1108.47 1594.68 1108.04C1594.25 1107.61 1593.81 1107.2 1593.35 1106.81C1592.89 1106.41 1592.41 1106.04 1591.92 1105.68C1591.43 1105.33 1590.92 1104.99 1590.41 1104.67C1581.38 1098.19 1594.68 1049.1 1591.15 1038.55C1585.98 1039.71 1576.24 1014.43 1570.75 988.58C1569.79 988.91 1568.82 989.18 1567.83 989.4C1566.85 989.62 1565.85 989.77 1564.85 989.87C1563.84 989.97 1562.83 990.02 1561.82 990C1560.81 989.98 1559.81 989.91 1558.81 989.77C1558.46 989.7 1558.11 989.63 1557.75 989.58C1557.4 989.53 1557.04 989.49 1556.69 989.47C1556.33 989.45 1555.98 989.43 1555.62 989.44C1555.26 989.44 1554.91 989.45 1554.55 989.48C1554.22 989.55 1553.89 989.63 1553.57 989.73C1553.25 989.82 1552.93 989.94 1552.62 990.06C1552.31 990.19 1552 990.33 1551.7 990.49C1551.4 990.64 1551.11 990.81 1550.83 990.99C1549.81 991.62 1548.78 992.22 1547.74 992.81C1546.7 993.39 1545.65 993.96 1544.59 994.5C1543.53 995.05 1542.46 995.57 1541.38 996.07C1540.3 996.58 1539.21 997.06 1538.11 997.53C1529.01 1000.97 1519.02 1000.47 1509.32 999.99C1508.99 998.23 1508.83 996.44 1508.84 994.65C1508.85 992.86 1509.03 991.07 1509.37 989.31C1509.71 987.55 1510.21 985.83 1510.88 984.17C1511.54 982.5 1512.36 980.9 1513.32 979.39L1513.32 979.39Z" />
				<g id="Groupe_179" style="opacity: 0.102">
					<path id="Tracé_2678" class="shp28" d="M1657.93 1169.96C1655.02 1163.76 1652.45 1157.4 1650.23 1150.92C1648 1144.45 1646.13 1137.85 1644.62 1131.17C1643.11 1124.49 1641.96 1117.73 1641.18 1110.93C1640.4 1104.12 1639.98 1097.28 1639.94 1090.43C1639.85 1076.99 1640.3 1061.38 1629.94 1052.82C1627.19 1050.52 1623.43 1048.25 1623.6 1044.66C1623.67 1044.25 1623.76 1043.85 1623.86 1043.45C1623.97 1043.05 1624.1 1042.65 1624.24 1042.26C1624.38 1041.87 1624.55 1041.49 1624.73 1041.12C1624.91 1040.75 1625.11 1040.38 1625.32 1040.03C1627.89 1034.55 1627.05 1027.97 1624.64 1022.45C1623.95 1021.1 1623.22 1019.78 1622.43 1018.49C1621.65 1017.19 1620.81 1015.93 1619.94 1014.7C1619.06 1013.47 1618.13 1012.27 1617.16 1011.11C1616.19 1009.95 1615.18 1008.82 1614.13 1007.74C1611.11 1004.29 1607.96 1000.72 1606.84 996.29C1606.69 995.61 1606.58 994.92 1606.49 994.23C1606.41 993.54 1606.35 992.84 1606.32 992.15C1606.3 991.45 1606.3 990.75 1606.34 990.05C1606.37 989.36 1606.43 988.66 1606.53 987.97C1607.56 977.48 1610.63 966.48 1606.65 956.71C1601.48 944.2 1587.02 938.84 1573.58 936.5C1573.87 936.41 1574.17 936.33 1574.47 936.27C1574.77 936.22 1575.07 936.18 1575.37 936.16C1575.68 936.14 1575.98 936.14 1576.29 936.15C1576.59 936.17 1576.9 936.2 1577.2 936.26C1590.98 938.48 1606.32 943.79 1611.66 956.71C1615.64 966.48 1612.56 977.48 1611.54 987.97C1611.44 988.66 1611.38 989.36 1611.34 990.05C1611.31 990.75 1611.3 991.45 1611.33 992.15C1611.35 992.84 1611.4 993.54 1611.49 994.23C1611.57 994.92 1611.69 995.61 1611.83 996.29C1612.97 1000.72 1616.11 1004.31 1619.14 1007.74C1620.19 1008.82 1621.2 1009.95 1622.17 1011.11C1623.14 1012.27 1624.06 1013.47 1624.94 1014.7C1625.82 1015.93 1626.65 1017.2 1627.43 1018.49C1628.21 1019.78 1628.95 1021.1 1629.63 1022.45C1632.12 1027.97 1632.91 1034.51 1630.34 1040.03C1630.12 1040.38 1629.92 1040.75 1629.74 1041.12C1629.56 1041.49 1629.39 1041.87 1629.25 1042.26C1629.11 1042.65 1628.98 1043.05 1628.87 1043.45C1628.77 1043.85 1628.68 1044.25 1628.62 1044.66C1628.44 1048.25 1632.2 1050.52 1634.96 1052.82C1645.3 1061.43 1644.87 1076.94 1644.95 1090.43C1644.99 1097.28 1645.41 1104.12 1646.18 1110.92C1646.96 1117.73 1648.1 1124.48 1649.61 1131.16C1651.11 1137.84 1652.97 1144.44 1655.18 1150.92C1657.4 1157.4 1659.96 1163.75 1662.85 1169.96C1661.83 1170.48 1660.78 1170.93 1659.7 1171.31C1658.61 1171.68 1657.5 1171.97 1656.38 1172.18C1655.25 1172.4 1654.11 1172.53 1652.96 1172.57C1651.82 1172.62 1650.67 1172.58 1649.53 1172.46C1650.26 1172.39 1650.99 1172.28 1651.71 1172.14C1652.43 1172 1653.15 1171.82 1653.85 1171.61C1654.55 1171.4 1655.25 1171.16 1655.93 1170.88C1656.61 1170.61 1657.27 1170.3 1657.92 1169.96L1657.93 1169.96Z" />
					<path id="Tracé_2679" class="shp28" d="M1636.92 1184.12C1636.26 1182.7 1635.63 1181.26 1635.05 1179.8C1634.46 1178.35 1633.91 1176.88 1633.4 1175.39C1632.89 1173.91 1632.42 1172.41 1631.98 1170.9C1631.55 1169.39 1631.16 1167.87 1630.8 1166.34C1631.25 1166.74 1631.7 1167.13 1632.17 1167.5C1632.65 1167.87 1633.13 1168.22 1633.63 1168.55C1634.13 1168.88 1634.64 1169.19 1635.16 1169.48C1635.69 1169.77 1636.22 1170.04 1636.77 1170.29C1637.1 1171.47 1637.46 1172.64 1637.85 1173.81C1638.23 1174.98 1638.64 1176.14 1639.07 1177.29C1639.5 1178.44 1639.96 1179.58 1640.43 1180.71C1640.91 1181.84 1641.41 1182.96 1641.94 1184.07C1641.31 1184.37 1640.66 1184.62 1640 1184.81C1639.33 1185.01 1638.66 1185.15 1637.97 1185.24C1637.28 1185.32 1636.59 1185.36 1635.9 1185.34C1635.21 1185.31 1634.52 1185.24 1633.84 1185.11C1634.1 1185.06 1634.37 1185 1634.63 1184.93C1634.89 1184.87 1635.15 1184.79 1635.41 1184.71C1635.67 1184.63 1635.92 1184.54 1636.17 1184.44C1636.43 1184.34 1636.67 1184.24 1636.92 1184.12L1636.92 1184.12Z" />
					<path id="Tracé_2680" class="shp28" d="M1561.74 954.74C1561.1 954.49 1560.45 954.26 1559.79 954.06C1559.14 953.86 1558.48 953.68 1557.81 953.52C1557.14 953.37 1556.46 953.23 1555.78 953.13C1555.11 953.02 1554.42 952.93 1553.74 952.88L1554.69 952.88C1555.28 952.85 1555.87 952.83 1556.47 952.84C1557.06 952.85 1557.65 952.87 1558.25 952.92C1558.84 952.96 1559.43 953.03 1560.02 953.11C1560.6 953.19 1561.19 953.29 1561.77 953.41C1561.76 953.79 1561.74 954.25 1561.74 954.74Z" />
					<path id="Tracé_2681" class="shp28" d="M1533.19 997.47C1534.28 997.01 1535.37 996.52 1536.45 996.02C1537.53 995.52 1538.6 994.99 1539.66 994.45C1540.72 993.9 1541.77 993.34 1542.81 992.75C1543.84 992.17 1544.87 991.56 1545.89 990.94C1546.17 990.76 1546.46 990.59 1546.76 990.43C1547.06 990.28 1547.37 990.14 1547.69 990.01C1548 989.88 1548.32 989.77 1548.64 989.67C1548.97 989.57 1549.29 989.49 1549.63 989.42C1549.95 989.39 1550.28 989.38 1550.6 989.37C1550.93 989.37 1551.26 989.38 1551.58 989.4C1551.91 989.42 1552.23 989.45 1552.56 989.49C1552.88 989.54 1553.2 989.59 1553.52 989.66C1553.29 989.75 1553.05 989.84 1552.83 989.94C1552.6 990.03 1552.37 990.13 1552.15 990.24C1551.92 990.35 1551.7 990.46 1551.48 990.57C1551.26 990.69 1551.04 990.81 1550.83 990.94C1549.81 991.56 1548.79 992.17 1547.75 992.75C1546.71 993.34 1545.66 993.9 1544.6 994.45C1543.54 994.99 1542.46 995.52 1541.38 996.02C1540.3 996.52 1539.21 997.01 1538.11 997.47C1536.41 998.03 1534.67 998.52 1532.92 998.91C1531.17 999.31 1529.4 999.63 1527.61 999.86C1525.83 1000.09 1524.04 1000.24 1522.24 1000.3C1520.44 1000.36 1518.64 1000.34 1516.85 1000.23C1518.24 1000.23 1519.62 1000.17 1521.01 1000.05C1522.39 999.94 1523.77 999.76 1525.13 999.53C1526.5 999.3 1527.86 999.01 1529.2 998.67C1530.55 998.32 1531.88 997.92 1533.19 997.47L1533.19 997.47Z" />
					<path id="Tracé_2682" class="shp28" d="M1565.82 988.53C1565.83 988.62 1565.85 988.72 1565.86 988.81C1565.87 988.91 1565.89 989.01 1565.91 989.1C1565.93 989.19 1565.96 989.29 1565.98 989.38C1566.01 989.48 1566.03 989.57 1566.06 989.66C1565.55 989.74 1565.03 989.8 1564.51 989.85C1563.99 989.89 1563.47 989.92 1562.95 989.94C1562.43 989.95 1561.91 989.95 1561.39 989.93C1560.87 989.91 1560.35 989.88 1559.83 989.83C1560.34 989.78 1560.84 989.71 1561.35 989.63C1561.86 989.55 1562.36 989.46 1562.86 989.35C1563.36 989.24 1563.86 989.11 1564.35 988.98C1564.85 988.84 1565.34 988.69 1565.82 988.53Z" />
				</g>
				<path id="Tracé_2683" class="shp26" d="M1653.12 1183.04C1653 1184.14 1653 1185.26 1653.12 1186.37C1653.24 1187.47 1653.48 1188.56 1653.84 1189.62C1654.2 1190.67 1654.67 1191.69 1655.24 1192.64C1655.81 1193.59 1656.49 1194.48 1657.26 1195.29C1657.69 1195.71 1658.14 1196.12 1658.61 1196.51C1659.07 1196.9 1659.54 1197.27 1660.03 1197.63C1660.52 1197.99 1661.02 1198.33 1661.53 1198.66C1662.04 1198.98 1662.57 1199.29 1663.1 1199.58C1663.61 1199.93 1664.14 1200.25 1664.69 1200.54C1665.24 1200.82 1665.81 1201.08 1666.39 1201.3C1666.97 1201.52 1667.56 1201.7 1668.16 1201.85C1668.77 1201.99 1669.38 1202.11 1669.99 1202.18C1670.82 1202.15 1671.63 1202.05 1672.44 1201.87C1673.24 1201.69 1674.03 1201.43 1674.79 1201.1C1675.54 1200.78 1676.27 1200.38 1676.95 1199.91C1677.63 1199.45 1678.27 1198.92 1678.85 1198.34C1686.15 1191.93 1689.81 1182.43 1693.18 1173.32C1697.65 1161.26 1702.09 1149.07 1704.01 1136.34C1706.06 1122.69 1705.18 1108.56 1709.09 1095.31C1705.64 1088.42 1703.4 1080.73 1699.46 1074.05C1698.83 1073.05 1698.22 1072.04 1697.63 1071.03C1697.04 1070.01 1696.47 1068.98 1695.92 1067.94C1695.36 1066.91 1694.83 1065.86 1694.31 1064.8C1693.8 1063.74 1693.3 1062.68 1692.82 1061.6C1691.92 1059.34 1691.2 1057 1690.69 1054.61C1690.18 1052.22 1689.87 1049.79 1689.77 1047.35C1689.67 1044.91 1689.78 1042.47 1690.1 1040.04C1690.41 1037.62 1690.93 1035.23 1691.65 1032.9C1691.31 1032.67 1690.93 1032.5 1690.53 1032.4C1690.14 1032.29 1689.73 1032.25 1689.32 1032.27C1688.91 1032.29 1688.51 1032.38 1688.12 1032.53C1687.74 1032.67 1687.39 1032.88 1687.07 1033.14C1686.76 1033.4 1686.46 1033.69 1686.19 1034C1685.91 1034.3 1685.66 1034.63 1685.43 1034.96C1685.19 1035.3 1684.98 1035.66 1684.8 1036.02C1684.61 1036.39 1684.45 1036.77 1684.31 1037.15C1683.74 1038.47 1683.26 1039.83 1682.86 1041.21C1682.45 1042.59 1682.14 1044 1681.9 1045.42C1681.67 1046.84 1681.53 1048.27 1681.47 1049.71C1681.41 1051.15 1681.44 1052.59 1681.55 1054.02C1681.63 1054.37 1681.67 1054.72 1681.69 1055.07C1681.71 1055.42 1681.69 1055.77 1681.65 1056.12C1681.62 1056.47 1681.55 1056.81 1681.45 1057.15C1681.36 1057.49 1681.24 1057.82 1681.09 1058.14C1680.82 1058.47 1680.52 1058.76 1680.18 1059.02C1679.84 1059.27 1679.47 1059.48 1679.09 1059.65C1678.7 1059.82 1678.29 1059.93 1677.87 1060C1677.45 1060.06 1677.03 1060.08 1676.61 1060.04C1675.73 1060 1674.86 1059.92 1673.98 1059.82C1673.11 1059.72 1672.24 1059.6 1671.38 1059.44C1670.51 1059.28 1669.65 1059.1 1668.8 1058.88C1667.95 1058.67 1667.11 1058.43 1666.27 1058.16C1663.67 1057.5 1661.05 1056.95 1658.4 1056.5C1655.76 1056.06 1653.1 1055.73 1650.43 1055.51C1647.76 1055.28 1645.08 1055.18 1642.4 1055.18C1639.72 1055.18 1637.04 1055.3 1634.37 1055.53C1633.83 1055.54 1633.3 1055.58 1632.76 1055.66C1632.23 1055.73 1631.7 1055.83 1631.18 1055.96C1630.66 1056.08 1630.14 1056.24 1629.63 1056.42C1629.13 1056.6 1628.63 1056.81 1628.15 1057.04C1627.67 1057.28 1627.23 1057.58 1626.83 1057.94C1626.44 1058.3 1626.09 1058.72 1625.81 1059.17C1625.53 1059.63 1625.31 1060.12 1625.17 1060.63C1625.02 1061.14 1624.94 1061.68 1624.94 1062.21L1650.44 1065.95C1650.92 1065.98 1651.39 1066.04 1651.86 1066.13C1652.33 1066.22 1652.8 1066.34 1653.25 1066.5C1653.7 1066.65 1654.14 1066.83 1654.57 1067.05C1655 1067.26 1655.41 1067.51 1655.8 1067.78C1656.18 1068.06 1656.5 1068.42 1656.74 1068.83C1656.98 1069.23 1657.14 1069.68 1657.2 1070.15C1657.27 1070.62 1657.25 1071.1 1657.13 1071.56C1657.01 1072.01 1656.81 1072.45 1656.53 1072.83C1656.39 1072.94 1656.25 1073.04 1656.12 1073.15C1655.98 1073.25 1655.83 1073.35 1655.69 1073.45C1655.55 1073.55 1655.4 1073.64 1655.25 1073.73C1655.1 1073.83 1654.95 1073.91 1654.8 1074C1654.15 1074.49 1653.62 1075.14 1653.27 1075.88C1652.91 1076.61 1652.74 1077.43 1652.76 1078.25C1652.78 1079.07 1652.99 1079.87 1653.38 1080.59C1653.77 1081.31 1654.33 1081.93 1655.01 1082.39C1655.17 1082.46 1655.33 1082.54 1655.48 1082.63C1655.63 1082.72 1655.78 1082.81 1655.93 1082.92C1656.07 1083.02 1656.21 1083.12 1656.34 1083.24C1656.48 1083.35 1656.61 1083.47 1656.73 1083.6C1657.77 1085 1656.39 1086.84 1655.94 1088.52C1655.84 1089.14 1655.84 1089.77 1655.93 1090.39C1656.03 1091.01 1656.21 1091.62 1656.48 1092.18C1656.76 1092.75 1657.11 1093.27 1657.54 1093.72C1657.97 1094.18 1658.46 1094.57 1659.01 1094.88C1659.56 1095.19 1660.12 1095.46 1660.7 1095.72C1661.28 1095.97 1661.86 1096.2 1662.46 1096.4C1663.06 1096.6 1663.66 1096.77 1664.27 1096.92C1664.88 1097.07 1665.5 1097.19 1666.12 1097.28C1667.37 1097.57 1668.62 1097.89 1669.85 1098.24C1671.09 1098.59 1672.31 1098.98 1673.53 1099.39C1674.74 1099.8 1675.95 1100.24 1677.14 1100.72C1678.34 1101.19 1679.52 1101.69 1680.68 1102.23C1681.06 1102.36 1681.43 1102.53 1681.78 1102.72C1682.14 1102.91 1682.47 1103.12 1682.8 1103.36C1683.12 1103.6 1683.42 1103.87 1683.7 1104.15C1683.98 1104.44 1684.24 1104.75 1684.48 1105.07C1685.73 1107.21 1684.91 1109.9 1684.05 1112.22L1677.39 1130.11C1677.15 1130.82 1676.89 1131.52 1676.62 1132.23C1676.35 1132.93 1676.08 1133.63 1675.79 1134.32C1675.5 1135.01 1675.2 1135.7 1674.9 1136.39C1674.59 1137.07 1674.27 1137.76 1673.95 1138.43C1672.22 1141.88 1670.17 1145.22 1668.43 1148.77C1668.05 1149.59 1667.67 1150.41 1667.3 1151.23C1666.94 1152.06 1666.58 1152.89 1666.23 1153.72C1665.89 1154.55 1665.55 1155.39 1665.23 1156.23C1664.9 1157.08 1664.59 1157.92 1664.29 1158.77C1660.96 1167.89 1654.26 1173.41 1653.12 1183.04Z" />
				<path id="Rectangle_542" class="shp29" d="M1344.86 1068.33L1421.61 1068.33L1421.61 1142.63L1344.86 1142.63L1344.86 1068.33Z" />
				<path id="Tracé_2684" class="shp26" d="M1358.16 1062.47C1358.51 1062.73 1358.84 1063.02 1359.15 1063.33C1359.45 1063.65 1359.73 1063.99 1359.97 1064.35C1360.22 1064.71 1360.44 1065.09 1360.62 1065.49C1360.81 1065.89 1360.96 1066.3 1361.07 1066.72C1361.13 1066.9 1361.15 1067.08 1361.15 1067.26C1361.15 1067.44 1361.12 1067.63 1361.06 1067.8C1360.99 1067.97 1360.91 1068.13 1360.8 1068.28C1360.69 1068.42 1360.55 1068.55 1360.4 1068.65C1360.31 1068.68 1360.21 1068.71 1360.11 1068.72C1360.01 1068.74 1359.92 1068.74 1359.82 1068.74C1359.72 1068.74 1359.62 1068.74 1359.52 1068.72C1359.42 1068.71 1359.32 1068.68 1359.23 1068.65C1358.76 1068.57 1358.29 1068.45 1357.83 1068.31C1357.37 1068.16 1356.92 1067.99 1356.48 1067.78C1356.05 1067.58 1355.63 1067.34 1355.22 1067.08C1354.82 1066.82 1354.43 1066.53 1354.06 1066.22C1354.21 1066.3 1354.35 1066.39 1354.49 1066.48C1354.62 1066.57 1354.76 1066.67 1354.89 1066.77C1355.02 1066.87 1355.14 1066.98 1355.26 1067.1C1355.38 1067.22 1355.49 1067.34 1355.59 1067.46C1355.7 1067.59 1355.78 1067.73 1355.85 1067.89C1355.91 1068.04 1355.95 1068.2 1355.97 1068.36C1355.99 1068.53 1355.99 1068.69 1355.96 1068.86C1355.93 1069.02 1355.87 1069.18 1355.8 1069.33C1355.7 1069.45 1355.58 1069.57 1355.45 1069.67C1355.32 1069.78 1355.18 1069.87 1355.03 1069.94C1354.88 1070.02 1354.73 1070.08 1354.57 1070.12C1354.41 1070.17 1354.24 1070.19 1354.08 1070.2C1353.47 1070.32 1352.85 1070.39 1352.23 1070.43C1351.61 1070.47 1350.98 1070.48 1350.36 1070.45C1349.74 1070.42 1349.12 1070.36 1348.51 1070.26C1347.89 1070.16 1347.29 1070.03 1346.69 1069.86C1346.97 1069.96 1347.24 1070.08 1347.51 1070.21C1347.78 1070.34 1348.04 1070.48 1348.3 1070.63C1348.56 1070.78 1348.81 1070.94 1349.05 1071.12C1349.29 1071.29 1349.53 1071.47 1349.75 1071.67C1349.98 1071.87 1350.18 1072.09 1350.36 1072.33C1350.54 1072.57 1350.69 1072.83 1350.81 1073.11C1350.93 1073.38 1351.02 1073.67 1351.08 1073.96C1351.13 1074.26 1351.16 1074.56 1351.15 1074.86C1351.15 1074.97 1351.14 1075.08 1351.11 1075.19C1351.09 1075.3 1351.05 1075.41 1351.01 1075.51C1350.96 1075.61 1350.9 1075.71 1350.83 1075.8C1350.76 1075.89 1350.69 1075.97 1350.6 1076.05C1350.54 1076.08 1350.48 1076.12 1350.41 1076.15C1350.34 1076.18 1350.27 1076.21 1350.2 1076.24C1350.14 1076.26 1350.06 1076.28 1349.99 1076.3C1349.92 1076.32 1349.85 1076.33 1349.77 1076.34C1349.21 1076.44 1348.63 1076.51 1348.06 1076.56C1347.48 1076.61 1346.91 1076.64 1346.33 1076.64C1345.75 1076.64 1345.17 1076.61 1344.6 1076.56C1344.02 1076.51 1343.45 1076.44 1342.88 1076.34C1342.59 1076.33 1342.3 1076.28 1342.02 1076.2C1341.74 1076.11 1341.47 1075.99 1341.22 1075.84C1340.96 1075.69 1340.73 1075.51 1340.52 1075.31C1340.32 1075.1 1340.14 1074.87 1339.99 1074.62C1339.93 1074.33 1339.9 1074.04 1339.9 1073.75C1339.9 1073.46 1339.93 1073.17 1339.98 1072.88C1340.04 1072.6 1340.13 1072.32 1340.24 1072.05C1340.35 1071.78 1340.49 1071.53 1340.66 1071.29C1340.96 1070.63 1341.23 1069.96 1341.46 1069.28C1341.68 1068.59 1341.87 1067.89 1342.01 1067.19C1342.16 1066.48 1342.26 1065.76 1342.32 1065.04C1342.38 1064.32 1342.4 1063.6 1342.38 1062.88C1342.36 1062.73 1342.35 1062.59 1342.36 1062.44C1342.36 1062.29 1342.37 1062.15 1342.39 1062C1342.41 1061.86 1342.44 1061.71 1342.48 1061.57C1342.52 1061.43 1342.57 1061.29 1342.62 1061.16C1342.72 1061.03 1342.82 1060.9 1342.94 1060.79C1343.05 1060.68 1343.17 1060.57 1343.3 1060.48C1343.43 1060.38 1343.57 1060.3 1343.71 1060.22C1343.86 1060.15 1344 1060.09 1344.16 1060.04C1346.59 1058.97 1349.89 1057.49 1352.6 1058.31C1353.13 1058.56 1353.64 1058.84 1354.14 1059.14C1354.64 1059.44 1355.12 1059.77 1355.59 1060.12C1356.06 1060.46 1356.51 1060.84 1356.94 1061.23C1357.37 1061.62 1357.78 1062.03 1358.17 1062.47L1358.16 1062.47Z" />
			</g>
		</g>
		<path id="Tracé_3084" class="shp2" d="M769.67 2798.2C775.37 2793.88 780.72 2788.78 782.37 2782.57C782.79 2780.94 782.9 2779.25 782.68 2777.58C782.47 2775.91 781.94 2774.3 781.12 2772.83C780.3 2771.36 779.21 2770.06 777.9 2769C776.6 2767.94 775.1 2767.14 773.49 2766.64C765.35 2764.09 756.65 2768.63 750.04 2773.35C743.43 2778.07 735.88 2783.31 727.24 2782.33C736.18 2775.86 740.44 2765.37 737.97 2755.83C737.87 2755.32 737.72 2754.82 737.54 2754.33C737.36 2753.84 737.14 2753.37 736.89 2752.91C736.64 2752.46 736.35 2752.02 736.03 2751.61C735.71 2751.2 735.36 2750.81 734.99 2750.46C730.47 2746.47 722.26 2748.21 716.85 2751.31C699.62 2761.27 694.83 2780.28 694.73 2797.46C692.99 2791.27 694.45 2784.82 694.41 2778.45C694.37 2772.08 692.24 2765.05 685.67 2761.62C684.62 2761.17 683.55 2760.77 682.46 2760.44C681.37 2760.1 680.26 2759.82 679.14 2759.61C678.02 2759.39 676.88 2759.24 675.75 2759.14C674.61 2759.05 673.47 2759.02 672.33 2759.06C664.58 2758.82 655.96 2759.46 650.68 2764.07C644.11 2769.81 645.82 2779.44 651.54 2785.76C657.25 2792.07 665.95 2796.03 673.94 2800.39C680.03 2803.71 686.2 2807.6 689.87 2812.85C689.99 2813.03 690.1 2813.2 690.21 2813.38C690.32 2813.56 690.43 2813.75 690.53 2813.93C690.63 2814.12 690.72 2814.31 690.81 2814.5C690.9 2814.69 690.98 2814.89 691.06 2815.08L739.58 2815.08C742.25 2813.99 744.89 2812.82 747.48 2811.57C750.08 2810.32 752.64 2808.99 755.15 2807.57C757.67 2806.16 760.14 2804.68 762.56 2803.11C764.98 2801.55 767.35 2799.91 769.67 2798.2Z" />
		<g id="Day_two">
			<path id="Rectangle_700" class="shp29" d="M496.66 1367.7L1348.66 1367.7L1348.66 1427.7L496.66 1427.7L496.66 1367.7Z" />
			<text id="Day Two" style="transform: matrix(1,0,0,1,858.992,1410.702)" >
				<tspan x="0" y="0" class="txt30">Day Two</tspan>
			</text>
		</g>
		<g id="Day_one">
			<path id="Rectangle_700-2" class="shp29" d="M490.66 92.7L1347.66 92.7L1347.66 152.7L490.66 152.7L490.66 92.7Z" />
			<text id="Day One " style="transform: matrix(1,0,0,1,860.125,133.202)" >
				<tspan x="0" y="0" class="txt30">Day One</tspan>
			</text>
		</g>
		<text id="Entreprises Stands" style="transform: matrix(0,1,-1,0,1249.656,1614.929)" >
			<tspan x="0" y="0" class="txt30">Entreprises Stands</tspan>
		</text>
		<text id="Flow" style="transform: matrix(0,1,-1,0,1075.656,1712.827)" >
			<tspan x="0" y="0" class="txt30">Flow</tspan>
		</text>
		<path id="Tracé_3093" class="shp20" d="M1020.66 2019.7L1156.66 2019.7L1156.66 2257.43L1020.66 2257.43L1020.66 2019.7Z" />
		<text id="First Selection " style="transform: matrix(0,1,-1,0,1076.656,2026.358)" >
			<tspan x="0" y="0" class="txt30">First Selection</tspan>
		</text>
	</g>
</svg>