<?xml version="1.0"?>
<svg xmlns="http://www.w3.org/2000/svg" viewBox="0 0 64 64">
    <path d="M 37.070312 4 C 36.814563 4 36.558781 4.0974687 36.363281 4.2929688 L 28.292969 12.363281 C 27.901969 12.754281 27.901969 13.386344 28.292969 13.777344 L 36.363281 21.849609 C 36.558281 22.044609 36.814312 22.142578 37.070312 22.142578 C 37.326313 22.142578 37.582344 22.044609 37.777344 21.849609 C 38.168344 21.458609 38.168344 20.826547 37.777344 20.435547 L 31.34375 14 L 45 14 C 48.859 14 52 17.141 52 21 L 52 33 C 52 33.553 52.447 34 53 34 C 53.553 34 54 33.553 54 33 L 54 21 C 54 16.037 49.963 12 45 12 L 31.484375 12 L 37.777344 5.7070312 C 38.168344 5.3160312 38.168344 4.6839687 37.777344 4.2929688 C 37.581844 4.0974687 37.326062 4 37.070312 4 z M 14.220703 8 C 12.025703 8 10.082578 8.7036875 8.8925781 9.9296875 L 8.7773438 10.046875 C 7.3473437 11.509875 4 14.934109 4 21.662109 C 4 27.439109 7.4315625 33.023891 9.4765625 35.837891 L 9.5527344 35.943359 C 9.5967344 36.002359 9.6797813 36.125734 9.8007812 36.302734 C 16.291781 45.768734 24.319297 52.838031 32.404297 56.207031 C 39.580297 59.199031 43.375656 59.994141 45.972656 59.994141 C 47.070656 59.994141 47.954062 59.851828 48.789062 59.673828 C 52.517063 58.865828 57.141141 56.122906 58.369141 52.628906 C 59.367141 49.787906 59.6775 46.596672 59.0625 45.513672 C 58.6565 44.797672 57.908094 44.435594 56.871094 43.933594 C 56.642094 43.823594 56.392953 43.702406 56.126953 43.566406 C 56.050953 43.529406 48.473734 39.729422 47.052734 39.232422 C 45.292734 38.562422 43.728344 39.042219 42.652344 40.574219 L 42.085938 41.373047 C 41.023938 42.871047 40.022891 44.287016 39.212891 45.166016 C 38.691891 45.725016 37.801391 45.704594 37.150391 45.433594 L 36.732422 45.261719 C 34.986422 44.550719 31.353328 43.073734 26.861328 39.052734 C 23.397328 35.946734 20.917 32.137344 19.75 30.152344 C 19.363 29.480344 19.524359 29.240172 20.193359 28.451172 C 20.553359 28.002172 20.905812 27.629906 21.257812 27.253906 C 21.546813 26.944906 21.836859 26.635016 22.130859 26.291016 L 22.259766 26.142578 C 22.853766 25.453578 23.28075 24.954578 23.71875 24.017578 C 24.45575 22.580578 23.770875 21.147734 23.546875 20.677734 C 23.323875 20.210734 21.768812 16.411672 20.632812 13.638672 L 19.515625 10.912109 L 19.513672 10.910156 C 18.449672 8.3461562 17.388109 8.1216406 15.787109 8.0566406 C 15.318109 8.0276406 14.798703 8 14.220703 8 z M 14.574219 10.007812 C 14.968219 10.014813 15.342453 10.031734 15.689453 10.052734 C 16.786453 10.097734 17.014016 10.106781 17.666016 11.675781 L 18.78125 14.394531 C 20.31825 18.147531 21.511234 21.055109 21.740234 21.537109 C 22.079234 22.245109 22.138828 22.714719 21.923828 23.136719 C 21.586828 23.858719 21.304187 24.184938 20.742188 24.835938 L 20.699219 24.886719 L 14.574219 10.007812 z M 12.527344 10.191406 C 12.539344 10.255406 12.538453 10.318859 12.564453 10.380859 L 19.210938 26.521484 C 19.018937 26.735484 18.822141 26.962844 18.619141 27.214844 C 17.979141 27.968844 16.910484 29.22925 18.021484 31.15625 C 19.250484 33.24925 21.861344 37.252062 25.527344 40.539062 C 30.279344 44.792063 34.272516 46.417328 35.978516 47.111328 L 36.378906 47.275391 C 37.953906 47.933391 39.639734 47.639438 40.677734 46.523438 C 41.251734 45.899437 41.887687 45.067391 42.554688 44.150391 L 56.714844 51.230469 C 56.641844 51.473469 56.571422 51.715797 56.482422 51.966797 C 55.544422 54.637797 51.538187 57.032703 48.367188 57.720703 C 46.378188 58.145703 43.648828 58.730281 33.173828 54.363281 C 25.439828 51.139281 17.725219 44.323875 11.449219 35.171875 C 11.303219 34.957875 11.201156 34.811813 11.160156 34.757812 L 11.09375 34.662109 C 9.19075 32.044109 6 26.874109 6 21.662109 C 6 15.749109 8.8410312 12.841359 10.207031 11.443359 L 10.326172 11.322266 C 10.836172 10.796266 11.612344 10.406406 12.527344 10.191406 z M 14.136719 33.658203 C 14.007937 33.675203 13.880719 33.718812 13.761719 33.789062 C 13.285719 34.068063 13.12625 34.682203 13.40625 35.158203 C 13.73425 35.717203 14.323516 36.577938 14.978516 37.460938 C 15.174516 37.725938 15.47525 37.865234 15.78125 37.865234 C 15.98825 37.865234 16.197953 37.800969 16.376953 37.667969 C 16.819953 37.338969 16.912984 36.712531 16.583984 36.269531 C 15.671984 35.039531 15.240859 34.332531 15.130859 34.144531 C 14.920859 33.788281 14.523063 33.607203 14.136719 33.658203 z M 18.550781 39.201172 C 18.295156 39.186172 18.033625 39.268172 17.828125 39.451172 C 17.415125 39.817172 17.376187 40.450281 17.742188 40.863281 C 18.897188 42.167281 20.078 43.361109 21.25 44.412109 C 24 46.873109 26.763891 48.825844 29.462891 50.214844 C 29.608891 50.289844 29.766922 50.324219 29.919922 50.324219 C 30.282922 50.324219 30.632547 50.12625 30.810547 49.78125 C 31.062547 49.29025 30.867953 48.688547 30.376953 48.435547 C 27.828953 47.125547 25.207938 45.270828 22.585938 42.923828 C 21.470938 41.923828 20.344281 40.784109 19.238281 39.537109 C 19.055281 39.329109 18.806406 39.216172 18.550781 39.201172 z M 45.447266 40.943359 C 45.71767 40.921504 46.017609 40.978125 46.365234 41.109375 C 47.390234 41.468375 53.043563 44.252563 55.226562 45.351562 C 55.503563 45.492562 55.760047 45.618422 55.998047 45.732422 C 56.544047 45.997422 57.224781 46.325125 57.300781 46.453125 C 57.405781 46.738125 57.437406 47.787422 57.191406 49.232422 L 43.734375 42.503906 L 44.283203 41.728516 C 44.630703 41.234766 44.996592 40.979785 45.447266 40.943359 z" fill="#4285F4"/>
</svg>
