<?xml version="1.0"?>
<svg xmlns="http://www.w3.org/2000/svg" viewBox="0 0 64 64">
    <path fill="#4285F4" d="M 45.949219 2.0097656 C 42.879219 2.0097656 39.720156 2.9892188 37.160156 4.9492188 C 36.020156 4.3392187 34.559609 4.5107031 33.599609 5.4707031 C 33.039609 6.0407031 32.730469 6.7896094 32.730469 7.5996094 C 32.730469 8.2496094 32.930781 8.8591406 33.300781 9.3691406 C 32.200781 11.259141 31.380469 13.430391 30.980469 15.650391 C 30.600469 15.760391 30.259766 15.979297 30.009766 16.279297 L 10.669922 39.490234 C 10.093922 40.181234 9.8885781 41.049 10.017578 41.875 L 7.6582031 45.292969 C 6.7012031 46.487969 6.7959062 48.204109 7.8789062 49.287109 L 8.6816406 50.091797 L 8.3847656 50.388672 C 6.0497656 52.723672 5.3852969 56.068187 6.6542969 59.117188 C 7.9192969 62.158187 10.748016 64.044922 14.041016 64.044922 L 14.064453 64.044922 L 25.003906 64 C 25.556906 63.998 26.002 63.548094 26 62.996094 C 25.998 62.445094 25.551 62 25 62 L 24.996094 62 L 14.058594 62.044922 L 14.037109 62.044922 C 11.089109 62.044922 9.2459531 60.137609 8.5019531 58.349609 C 7.7569531 56.557609 7.7058281 53.895734 9.7988281 51.802734 L 10.095703 51.505859 L 11.003906 52.412109 C 11.593906 53.002109 12.371578 53.300781 13.142578 53.300781 C 13.786578 53.300781 14.424359 53.091781 14.943359 52.675781 L 18.417969 50.275391 C 18.571969 50.299391 18.725859 50.320312 18.880859 50.320312 C 19.550859 50.320312 20.240781 50.089141 20.800781 49.619141 L 44.009766 30.279297 C 44.309766 30.029297 44.520625 29.700078 44.640625 29.330078 C 46.850625 28.930078 49.029453 28.120234 50.939453 26.990234 C 51.459453 27.370234 52.079219 27.560547 52.699219 27.560547 C 53.459219 27.560547 54.230313 27.269453 54.820312 26.689453 C 55.380313 26.119453 55.699219 25.370313 55.699219 24.570312 C 55.699219 24.060312 55.579844 23.580391 55.339844 23.150391 C 57.059844 20.870391 58.109531 18.010312 58.269531 15.070312 C 58.469531 11.310312 57.250313 7.9007031 54.820312 5.4707031 C 52.500312 3.1507031 49.269219 2.0097656 45.949219 2.0097656 z M 46.363281 3.984375 C 49.010781 4.074375 51.550391 5.035625 53.400391 6.890625 C 55.430391 8.910625 56.449531 11.780703 56.269531 14.970703 C 56.139531 17.370703 55.330234 19.699375 53.990234 21.609375 L 38.679688 6.3007812 C 40.959688 4.6757812 43.715781 3.894375 46.363281 3.984375 z M 35.730469 6.5996094 C 35.980469 6.5996094 36.239687 6.690625 36.429688 6.890625 L 37.140625 7.5996094 L 52.689453 23.150391 L 53.400391 23.859375 C 53.590391 24.049375 53.699219 24.300313 53.699219 24.570312 C 53.699219 24.760312 53.639297 24.949375 53.529297 25.109375 L 53.529297 25.119141 C 53.489297 25.169141 53.450391 25.219531 53.400391 25.269531 C 53.330391 25.339531 53.249922 25.389688 53.169922 25.429688 C 53.159922 25.439688 53.150625 25.449219 53.140625 25.449219 C 52.770625 25.639219 52.300234 25.579531 51.990234 25.269531 L 51.169922 24.449219 L 35.849609 9.1308594 L 35.019531 8.3007812 C 34.829531 8.1107813 34.730469 7.8596094 34.730469 7.5996094 C 34.730469 7.4596094 34.760781 7.3407031 34.800781 7.2207031 C 34.810781 7.2007031 34.810547 7.1994531 34.810547 7.1894531 C 34.860547 7.0794531 34.929531 6.980625 35.019531 6.890625 C 35.079531 6.830625 35.139219 6.78 35.199219 6.75 C 35.359219 6.65 35.550469 6.5996094 35.730469 6.5996094 z M 34.75 10.869141 L 49.439453 25.550781 C 47.819453 26.430781 45.999688 27.060859 44.179688 27.380859 C 44.169688 27.360859 44.160625 27.350078 44.140625 27.330078 L 32.960938 16.150391 L 32.929688 16.119141 C 33.249688 14.279141 33.88 12.469141 34.75 10.869141 z M 31.550781 17.560547 L 32.679688 18.689453 L 41.609375 27.619141 L 42.730469 28.740234 L 41.679688 29.619141 L 19.519531 48.080078 C 19.119531 48.420078 18.539922 48.389531 18.169922 48.019531 L 12.269531 42.119141 C 11.899531 41.749141 11.870937 41.169531 12.210938 40.769531 L 30.679688 18.599609 L 31.550781 17.560547 z M 31.482422 20.736328 C 31.226672 20.736453 30.970891 20.834297 30.775391 21.029297 L 29.361328 22.443359 C 28.970328 22.834359 28.970328 23.466422 29.361328 23.857422 C 29.556328 24.052422 29.812359 24.150391 30.068359 24.150391 C 30.324359 24.150391 30.580391 24.052422 30.775391 23.857422 L 32.189453 22.443359 C 32.580453 22.052359 32.580453 21.420297 32.189453 21.029297 C 31.993953 20.833797 31.738172 20.736203 31.482422 20.736328 z M 35.019531 24.273438 C 34.763656 24.273438 34.5075 24.370906 34.3125 24.566406 L 32.898438 25.980469 C 32.507438 26.371469 32.507438 27.003531 32.898438 27.394531 C 33.093438 27.589531 33.349469 27.6875 33.605469 27.6875 C 33.861469 27.6875 34.1175 27.589531 34.3125 27.394531 L 35.726562 25.980469 C 36.117562 25.589469 36.117562 24.957406 35.726562 24.566406 C 35.531063 24.370906 35.275406 24.273438 35.019531 24.273438 z M 38.552734 27.808594 C 38.296859 27.808594 38.042656 27.906062 37.847656 28.101562 L 36.433594 29.515625 C 36.042594 29.906625 36.042594 30.538687 36.433594 30.929688 C 36.628594 31.124688 36.884625 31.222656 37.140625 31.222656 C 37.396625 31.222656 37.652656 31.124688 37.847656 30.929688 L 39.261719 29.515625 C 39.652719 29.124625 39.652719 28.492563 39.261719 28.101562 C 39.066219 27.906062 38.808609 27.808594 38.552734 27.808594 z M 28.654297 28.666016 C 27.876922 28.665766 27.100203 28.948625 26.533203 29.515625 L 23.705078 32.34375 C 23.139078 32.91075 22.826172 33.664797 22.826172 34.466797 C 22.826172 35.268797 23.138078 36.021891 23.705078 36.587891 C 24.290078 37.172891 25.058172 37.464844 25.826172 37.464844 C 26.594172 37.464844 27.362266 37.172891 27.947266 36.587891 L 30.775391 33.759766 C 31.945391 32.590766 31.945391 30.685625 30.775391 29.515625 C 30.209891 28.949625 29.431672 28.666266 28.654297 28.666016 z M 28.654297 30.636719 C 28.922297 30.636719 29.173328 30.741687 29.361328 30.929688 C 29.751328 31.320687 29.751328 31.95375 29.361328 32.34375 L 26.533203 35.171875 C 26.154203 35.549875 25.498141 35.549875 25.119141 35.171875 C 24.930141 34.983875 24.826172 34.732844 24.826172 34.464844 C 24.826172 34.196844 24.930141 33.946812 25.119141 33.757812 L 27.947266 30.929688 C 28.135266 30.740687 28.387297 30.636719 28.654297 30.636719 z M 11.113281 43.802734 L 16.052734 48.732422 L 16.494141 49.173828 L 13.75 51.072266 C 13.353 51.390266 12.778969 51.360047 12.417969 50.998047 L 9.2929688 47.873047 C 8.9329688 47.512047 8.9007187 46.938375 9.2617188 46.484375 L 11.113281 43.802734 z M 29 62 C 28.447 62 28 62.448 28 63 C 28 63.552 28.447 64 29 64 L 33 64 C 33.553 64 34 63.552 34 63 C 34 62.448 33.553 62 33 62 L 29 62 z"/>
</svg>
