<svg xmlns="http://www.w3.org/2000/svg" enable-background="new 0 0 64 64" viewBox="0 0 64 64"><path fill="#4285F4" stroke="#000" stroke-linecap="round" stroke-linejoin="round" stroke-miterlimit="10" stroke-width="2" d="M37,2.7H4.2C2.4,2.7,1,4.2,1,6v41c0,1.8,1.4,3.2,3.2,3.2h55.6c1.8,0,3.2-1.4,3.2-3.2V6c0-1.8-1.4-3.2-3.2-3.2
		L37,2.7L37,2.7z"/><line x1="5" x2="63" y1="40.5" y2="40.5" fill="none" stroke="#000" stroke-linecap="round" stroke-linejoin="round" stroke-miterlimit="10" stroke-width="2"/><circle cx="33.7" cy="19.9" r="4.1" fill="#4285F4" stroke="#000" stroke-linecap="round" stroke-linejoin="round" stroke-miterlimit="10" stroke-width="2"/><line x1="33.7" x2="31.7" y1="24" y2="29.3" fill="#4285F4" stroke="#000" stroke-linecap="round" stroke-linejoin="round" stroke-miterlimit="10" stroke-width="2"/><circle cx="30.7" cy="31.7" r="2.6" fill="#4285F4" stroke="#000" stroke-linecap="round" stroke-linejoin="round" stroke-miterlimit="10" stroke-width="2"/><line x1="29.6" x2="24.5" y1="19.9" y2="19.9" fill="#4285F4" stroke="#000" stroke-linecap="round" stroke-linejoin="round" stroke-miterlimit="10" stroke-width="2"/><circle cx="21.9" cy="19.9" r="2.6" fill="#4285F4" stroke="#000" stroke-linecap="round" stroke-linejoin="round" stroke-miterlimit="10" stroke-width="2"/><line x1="36.7" x2="40.2" y1="17" y2="13.4" fill="#4285F4" stroke="#000" stroke-linecap="round" stroke-linejoin="round" stroke-miterlimit="10" stroke-width="2"/><ellipse cx="42.1" cy="11.5" fill="#4285F4" stroke="#000" stroke-linecap="round" stroke-linejoin="round" stroke-miterlimit="10" stroke-width="2" rx="2.6" ry="2.6" transform="rotate(-45.001 42.086 11.513)"/><line x1="36.7" x2="40.2" y1="22.8" y2="26.4" fill="#4285F4" stroke="#000" stroke-linecap="round" stroke-linejoin="round" stroke-miterlimit="10" stroke-width="2"/><ellipse cx="42.1" cy="28.3" fill="#4285F4" stroke="#000" stroke-linecap="round" stroke-linejoin="round" stroke-miterlimit="10" stroke-width="2" rx="2.6" ry="2.6" transform="rotate(-45.001 42.123 28.297)"/><line x1="30.8" x2="27.2" y1="17" y2="13.4" fill="#4285F4" stroke="#000" stroke-linecap="round" stroke-linejoin="round" stroke-miterlimit="10" stroke-width="2"/><ellipse cx="25.4" cy="11.5" fill="#4285F4" stroke="#000" stroke-linecap="round" stroke-linejoin="round" stroke-miterlimit="10" stroke-width="2" rx="2.6" ry="2.6" transform="rotate(-45.001 25.373 11.48)"/><g><path fill="#4285F4" stroke="#000" stroke-linecap="round" stroke-linejoin="round" stroke-miterlimit="10" stroke-width="2" d="M42.3 57.1l-.9-.6c-.2-.2-.5-.4-.6-.7H23.2c-.2.3-.4.5-.6.7l-.9.6c-.6.4-.9 1.1-.9 1.9v.9c0 .8.6 1.4 1.4 1.4h19.7c.8 0 1.4-.6 1.4-1.4V59C43.3 58.2 42.9 57.5 42.3 57.1zM40.4 55l-2-4.8H25.5l-2 4.8c-.1.3-.2.6-.4.8h17.6C40.7 55.5 40.5 55.3 40.4 55z"/></g><line x1="29.4" x2="34.6" y1="45.4" y2="45.4" fill="#4285F4" stroke="#000" stroke-linecap="round" stroke-linejoin="round" stroke-miterlimit="10" stroke-width="2"/></svg>