<?xml version="1.0"?>
<svg xmlns="http://www.w3.org/2000/svg" viewBox="0 0 50 50">
    <path style="line-height:normal;text-indent:0;text-align:start;text-decoration-line:none;text-decoration-style:solid;text-decoration-color:#000;text-transform:none;block-progression:tb;isolation:auto;mix-blend-mode:normal" d="M 23 1 C 15.77381 1 10.445563 3.4910019 7 7.4003906 C 3.554437 11.309779 2 16.559524 2 22 C 2 26.406349 3.3650802 30.506168 5.6757812 33.867188 C 7.7705902 36.914181 9 40.521441 9 44.199219 L 9 49 L 11 49 L 11 44.199219 C 11 40.076997 9.6294098 36.08738 7.3242188 32.734375 C 5.2349198 29.695395 4 25.993651 4 22 C 4 16.940476 5.445563 12.190221 8.5 8.7246094 C 11.554437 5.2589981 16.22619 3 23 3 C 29.802381 3 34.207166 4.9789703 37.117188 8.0058594 C 40.027208 11.032748 41.474081 15.204341 42.007812 19.716797 L 42.03125 19.923828 L 46.826172 28.185547 C 47.074892 28.633244 46.95029 29.078295 46.515625 29.322266 L 42 31.582031 L 42 37.599609 C 42 41.34147 38.921743 44.251123 35.193359 43.904297 L 35.177734 43.902344 L 31 43.632812 L 31 49 L 33 49 L 33 45.765625 L 35.007812 45.896484 C 39.87943 46.349658 44 42.457749 44 37.599609 L 44 32.818359 L 47.466797 31.083984 L 47.486328 31.074219 C 48.848147 30.317653 49.324676 28.565667 48.574219 27.214844 L 48.570312 27.207031 L 43.921875 19.197266 C 43.327137 14.515148 41.805351 9.9962901 38.558594 6.6191406 C 35.243615 3.1710297 30.197619 1 23 1 z M 27 8 L 27 10.101562 C 26.364756 10.23195 25.773894 10.488154 25.25 10.835938 L 23.757812 9.34375 L 22.34375 10.757812 L 23.835938 12.25 C 23.488154 12.773894 23.23195 13.364756 23.101562 14 L 21 14 L 21 16 L 23.101562 16 C 23.23195 16.635244 23.488154 17.226106 23.835938 17.75 L 22.34375 19.242188 L 23.757812 20.65625 L 25.25 19.164062 C 25.773894 19.511846 26.364756 19.76805 27 19.898438 L 27 22 L 29 22 L 29 19.898438 C 29.635244 19.76805 30.226106 19.511846 30.75 19.164062 L 32.242188 20.65625 L 33.65625 19.242188 L 32.164062 17.75 C 32.511846 17.226106 32.76805 16.635244 32.898438 16 L 35 16 L 35 14 L 32.898438 14 C 32.76805 13.364756 32.511846 12.773894 32.164062 12.25 L 33.65625 10.757812 L 32.242188 9.34375 L 30.75 10.835938 C 30.226106 10.488154 29.635244 10.23195 29 10.101562 L 29 8 L 27 8 z M 28 12 C 29.668699 12 31 13.331301 31 15 C 31 16.668699 29.668699 18 28 18 C 26.331301 18 25 16.668699 25 15 C 25 13.331301 26.331301 12 28 12 z M 15 16 L 15 18.101562 C 14.36451 18.232001 13.779961 18.493835 13.255859 18.841797 L 11.757812 17.34375 L 10.34375 18.757812 L 11.84375 20.257812 C 11.496534 20.780866 11.239892 21.365919 11.109375 22 L 9 22 L 9 24 L 11.101562 24 C 11.23195 24.635244 11.488154 25.226106 11.835938 25.75 L 10.34375 27.242188 L 11.757812 28.65625 L 13.25 27.164062 C 13.773894 27.511846 14.364756 27.76805 15 27.898438 L 15 30 L 17 30 L 17 27.898438 C 17.635244 27.76805 18.226106 27.511846 18.75 27.164062 L 20.242188 28.65625 L 21.65625 27.242188 L 20.164062 25.75 C 20.511846 25.226106 20.76805 24.635244 20.898438 24 L 23 24 L 23 22 L 20.890625 22 C 20.760108 21.365919 20.503466 20.780866 20.15625 20.257812 L 21.65625 18.757812 L 20.242188 17.34375 L 18.744141 18.841797 C 18.220039 18.493835 17.63549 18.232001 17 18.101562 L 17 16 L 15 16 z M 16 20 C 17.668699 20 19 21.331301 19 23 C 19 24.668699 17.668699 26 16 26 C 14.331301 26 13 24.668699 13 23 C 13 21.331301 14.331301 20 16 20 z" fill="#4285F4"/>
</svg>
